<svg width="10" height="8" viewBox="0 0 10 8" fill="none" xmlns="http://www.w3.org/2000/svg">
<path d="M5.3 7C5.3 5.47789 5.78623 4.11087 6.55802 3.13082C7.32974 2.15086 8.37296 1.57143 9.5 1.57143L9.5 1C8.14176 1 6.93498 1.69976 6.07802 2.78796C5.7735 3.17465 5.51139 3.61211 5.3 4.08874L4.7 4.08874C4.48861 3.61211 4.2265 3.17465 3.92198 2.78796C3.06502 1.69976 1.85824 1 0.5 1L0.5 1.57143C1.62704 1.57143 2.67026 2.15086 3.44198 3.13082C4.21377 4.11087 4.7 5.47789 4.7 7L5.3 7Z" fill="#706860" stroke="#706860" stroke-width="0.5"/>
</svg>
