<svg width="18" height="14" viewBox="0 0 18 14" fill="none" xmlns="http://www.w3.org/2000/svg">
<path d="M15.1348 10.658H14.6348V11.158V12.7999L10.7297 8.92622L12.885 6.78826L16.786 10.658H15.1348Z" stroke="white"/>
<path d="M3.3652 11.158V10.658H2.8652H1.21401L5.115 6.78826L7.27023 8.92622L3.3652 12.7999V11.158Z" stroke="white"/>
<path d="M9.00001 0C6.13481 0 3.88501 2.23177 3.88501 5.074C3.88501 7.91623 6.13481 10.148 9.00001 10.148C11.8652 10.148 14.115 7.91623 14.115 5.074C14.115 2.23177 11.8652 0 9.00001 0ZM9.00001 8.1184C7.26171 8.1184 5.93101 6.79837 5.93101 5.074C5.93101 3.34963 7.26171 2.0296 9.00001 2.0296C10.7383 2.0296 12.069 3.34963 12.069 5.074C12.069 6.79837 10.7383 8.1184 9.00001 8.1184Z" fill="white"/>
</svg>
