<svg width="20" height="20" viewBox="0 0 20 20" fill="none" xmlns="http://www.w3.org/2000/svg">
<path fill-rule="evenodd" clip-rule="evenodd" d="M10.1063 5.40629C7.50566 5.40629 5.40314 7.51247 5.40314 10.1095C5.40314 12.7102 7.50933 14.8127 10.1063 14.8127C12.7034 14.8127 14.8095 12.7028 14.8095 10.1095C14.8095 7.50881 12.707 5.40629 10.1063 5.40629ZM10.1063 13.1607C8.4214 13.1607 7.05512 11.7944 7.05512 10.1095C7.05512 8.42454 8.4214 7.05827 10.1063 7.05827C11.7913 7.05827 13.1576 8.42454 13.1576 10.1095C13.1576 11.7944 11.7913 13.1607 10.1063 13.1607Z" fill="#706860"/>
<path d="M16.0916 5.22321C16.0916 5.83011 15.5996 6.32209 14.9927 6.32209C14.3858 6.32209 13.8938 5.83011 13.8938 5.22321C13.8938 4.61632 14.3858 4.12434 14.9927 4.12434C15.5996 4.12434 16.0916 4.61632 16.0916 5.22321Z" fill="#706860"/>
<path fill-rule="evenodd" clip-rule="evenodd" d="M19.2087 6.33714C19.1648 5.3628 19.0072 4.69615 18.7838 4.11374C18.5494 3.51302 18.238 3.00021 17.7289 2.49473C17.2197 1.98924 16.7106 1.67057 16.1099 1.4398C15.5275 1.2127 14.8608 1.05886 13.8865 1.0149C12.9085 0.97095 12.5971 0.959961 10.1137 0.959961C7.62652 0.959961 7.31518 0.97095 6.34084 1.0149C5.3665 1.05886 4.69984 1.21637 4.11744 1.4398C3.51305 1.67423 3.00024 1.98558 2.49476 2.49473C1.98927 3.00388 1.6706 3.51302 1.43984 4.11374C1.2164 4.69615 1.05889 5.3628 1.01494 6.33714C0.97098 7.31515 0.959991 7.62649 0.959991 10.11C0.959991 12.5971 0.97098 12.9084 1.01494 13.8828C1.05889 14.8571 1.2164 15.5238 1.43984 16.1062C1.67426 16.7069 1.98561 17.2197 2.49476 17.7252C3.00024 18.2343 3.51305 18.5494 4.11377 18.7801C4.69618 19.0072 5.36283 19.1611 6.33717 19.205C7.31518 19.249 7.62652 19.26 10.11 19.26C12.5971 19.26 12.9085 19.249 13.8828 19.205C14.8571 19.1611 15.5238 19.0036 16.1062 18.7801C16.7069 18.5457 17.2197 18.2343 17.7252 17.7252C18.2307 17.216 18.5494 16.7069 18.7801 16.1062C19.0072 15.5238 19.1611 14.8571 19.205 13.8828C19.249 12.9048 19.26 12.5934 19.26 10.11C19.26 7.62649 19.2527 7.31148 19.2087 6.33714ZM17.5641 13.8095C17.5238 14.7033 17.3736 15.1904 17.249 15.5091C17.0842 15.934 16.8828 16.2417 16.5604 16.564C16.2381 16.8864 15.9341 17.0805 15.5055 17.2527C15.1831 17.3772 14.696 17.5274 13.8059 17.5677C12.8425 17.6116 12.5532 17.6226 10.1063 17.6226C7.65949 17.6226 7.37012 17.6116 6.40677 17.5677C5.51301 17.5274 5.02584 17.3772 4.70717 17.2527C4.28227 17.0878 3.97458 16.8864 3.65225 16.564C3.32991 16.2417 3.13577 15.9377 2.96361 15.5091C2.83907 15.1868 2.68889 14.6996 2.6486 13.8095C2.60465 12.8462 2.59366 12.5568 2.59366 10.11C2.59366 7.66312 2.60465 7.37375 2.6486 6.4104C2.68889 5.51665 2.83907 5.02948 2.96361 4.7108C3.12845 4.2859 3.32991 3.97822 3.65225 3.65588C3.97458 3.33354 4.27861 3.1394 4.70717 2.96725C5.02951 2.84271 5.51668 2.69253 6.40677 2.65223C7.37012 2.60828 7.65949 2.59729 10.1063 2.59729C12.5532 2.59729 12.8425 2.60828 13.8059 2.65223C14.6996 2.69253 15.1868 2.84271 15.5055 2.96725C15.9304 3.13208 16.2381 3.33354 16.5604 3.65588C16.8828 3.97822 17.0769 4.28224 17.249 4.7108C17.3736 5.03314 17.5238 5.52031 17.5641 6.4104C17.608 7.37375 17.619 7.66312 17.619 10.11C17.619 12.4979 17.605 12.831 17.5669 13.741L17.5641 13.8095Z" fill="#706860"/>
</svg>
