<svg width="19" height="15" viewBox="0 0 19 15" fill="none" xmlns="http://www.w3.org/2000/svg">
<path fill-rule="evenodd" clip-rule="evenodd" d="M1.77802 6.48211C6.69038 4.41607 9.96605 3.05401 11.605 2.39593C16.2847 0.516974 17.2571 0.19058 17.8909 0.179802C18.0303 0.177432 18.342 0.210781 18.5439 0.368924C18.7143 0.502457 18.7612 0.682842 18.7837 0.809446C18.8061 0.93605 18.8341 1.22446 18.8119 1.44981C18.5583 4.02196 17.461 10.2639 16.9027 13.1447C16.6665 14.3637 16.2014 14.7724 15.7511 14.8124C14.7726 14.8994 14.0295 14.1882 13.0817 13.5884C11.5986 12.6499 10.7608 12.0657 9.32118 11.1499C7.65747 10.0916 8.73598 9.50989 9.68412 8.55925C9.93226 8.31046 14.2438 4.52472 14.3273 4.1813C14.3377 4.13835 14.3474 3.97825 14.2489 3.89371C14.1503 3.80917 14.0049 3.83808 13.9 3.86107C13.7512 3.89366 11.382 5.40536 6.79219 8.39618C6.11968 8.84197 5.51055 9.05917 4.96478 9.04779C4.36312 9.03524 3.20577 8.71939 2.34539 8.44941C1.29011 8.11827 0.451389 7.9432 0.524422 7.38082C0.562463 7.0879 0.980328 6.78833 1.77802 6.48211Z" fill="#706860"/>
</svg>
