<svg width="1502" height="452" viewBox="0 0 1502 452" fill="none" xmlns="http://www.w3.org/2000/svg">
<path d="M1 1C1 70.8837 78.0918 135.461 199.114 146.829C280.435 154.467 358.834 136.643 418.715 104.287C436.209 94.8338 472.198 74.1428 471.3 57.5839C470.87 49.6416 436.118 75.0823 435.277 76.584C420.646 91.3444 411.814 110.116 429.022 125.609C450.117 144.602 502.488 145.959 536.465 146.829C547.498 147.111 593.835 142.421 598.484 150.989C606.487 165.738 601.748 182.198 613.509 196.444C633.37 220.501 699.052 212.566 734.753 212.566C805.179 212.566 877.651 211.528 932.867 242.834C963.295 260.088 972.057 287.161 994.708 307.635C1007.08 318.815 1020.53 319.657 1041.53 321.469C1109.72 327.353 1151.93 366.448 1193.87 395.008C1234.14 422.427 1281.84 454.078 1349.18 450.759C1405.32 447.994 1454.6 422.471 1501 405.409" stroke="#93961F" stroke-linecap="round"/>
</svg>
