<svg width="3002" height="902" viewBox="0 0 3002 902" fill="none" xmlns="http://www.w3.org/2000/svg">
<path d="M1 1C1 140.767 155.184 269.923 397.227 292.657C559.869 307.934 716.668 272.286 836.429 207.574C871.417 188.668 943.395 147.286 941.601 114.168C940.74 98.2832 871.235 149.165 869.554 152.168C840.292 181.689 822.628 219.233 857.044 250.219C899.234 288.204 1003.98 290.917 1071.93 292.657C1094 293.223 1186.67 283.841 1195.97 300.978C1211.97 330.475 1202.5 363.397 1226.02 391.887C1265.74 440.003 1397.1 424.132 1468.51 424.132C1609.36 424.132 1754.3 422.055 1864.73 484.669C1925.59 519.176 1943.11 573.321 1988.42 614.271C2013.17 636.63 2040.06 638.314 2082.07 641.938C2218.44 653.706 2302.86 731.895 2386.74 789.016C2467.27 843.855 2562.67 907.156 2697.37 900.519C2809.63 894.988 2908.21 843.943 3001 809.818" stroke="#93961F" stroke-linecap="round"/>
</svg>
