<svg width="1002" height="252" viewBox="0 0 1002 252" fill="none" xmlns="http://www.w3.org/2000/svg">
<path d="M1 1C1 39.8243 52.3945 75.7008 133.076 82.0159C187.29 86.2595 239.556 76.3571 279.476 58.3816C291.139 53.1299 315.132 41.6349 314.534 32.4355C314.247 28.0231 291.078 42.1569 290.518 42.9911C280.764 51.1913 274.876 61.6202 286.348 70.2275C300.411 80.779 335.325 81.5326 357.976 82.0159C365.332 82.173 396.223 79.567 399.323 84.3273C404.658 92.5209 401.499 101.666 409.339 109.58C422.58 122.945 466.368 118.537 490.169 118.537C537.119 118.537 585.434 117.96 622.244 135.352C642.53 144.938 648.371 159.978 663.472 171.353C671.723 177.564 680.686 178.032 694.688 179.038C740.148 182.307 768.287 204.027 796.247 219.893C823.091 235.126 854.89 252.71 899.789 250.866C937.211 249.33 970.07 235.151 1001 225.672" stroke="#93961F" stroke-width="0.5" stroke-linecap="round"/>
</svg>
