<svg width="9" height="19" viewBox="0 0 9 19" fill="none" xmlns="http://www.w3.org/2000/svg">
<path d="M0.56948 13.11L1.98048 11.716L2.57548 11.529C2.41681 11.3363 2.30348 11.121 2.23548 10.883C2.16748 10.645 2.13348 10.39 2.13348 10.118C2.13348 9.85733 2.16748 9.608 2.23548 9.37C2.30348 9.12066 2.41681 8.89966 2.57548 8.707L1.98048 8.52L0.58648 7.109L1.50448 6.191L2.89848 7.602L3.10248 8.18C3.29515 8.03266 3.51048 7.91933 3.74848 7.84C3.98648 7.76066 4.23581 7.721 4.49648 7.721C5.06315 7.74367 5.53348 7.89667 5.90748 8.18L6.11148 7.602L7.50548 6.208L8.42348 7.126L7.01248 8.52L6.45148 8.707C6.58748 8.89966 6.68948 9.12066 6.75748 9.37C6.82548 9.608 6.85948 9.85733 6.85948 10.118C6.85948 10.662 6.72348 11.138 6.45148 11.546L7.01248 11.716L8.40648 13.127L7.48848 14.045L6.09448 12.651L5.90748 12.073C5.51081 12.345 5.04048 12.481 4.49648 12.481C4.23581 12.481 3.98648 12.447 3.74848 12.379C3.51048 12.2997 3.28381 12.1977 3.06848 12.073L2.89848 12.634L1.48748 14.028L0.56948 13.11ZM4.49648 11.512C4.90448 11.512 5.24448 11.3817 5.51648 11.121C5.79981 10.8603 5.94148 10.526 5.94148 10.118C5.94148 9.71 5.79981 9.37566 5.51648 9.115C5.24448 8.843 4.90448 8.707 4.49648 8.707C4.08848 8.69566 3.74281 8.826 3.45948 9.098C3.18748 9.37 3.05148 9.71 3.05148 10.118C3.05148 10.526 3.18748 10.8603 3.45948 11.121C3.74281 11.3817 4.08848 11.512 4.49648 11.512Z" fill="#706860"/>
</svg>
