<svg width="203" height="32" viewBox="0 0 203 32" fill="none" xmlns="http://www.w3.org/2000/svg">
<path d="M1 25.4867C6.15361 30.0062 2.6799 29.2326 4.27556 24.0382C6.57964 16.5378 16.3106 6.84857 24.0281 8.7737C29.6269 10.1703 30.259 26.271 26.3111 29.8321C25.1118 30.9139 22.2999 32.0728 22.44 29.1636C22.8321 21.0205 29.3987 14.1894 35.1452 10.2779C43.0659 4.88644 61.036 -3.34407 69.9354 3.7598C72.7818 6.03157 73.9485 10.033 74.1041 13.7876C74.1936 15.9404 70.8207 21.3312 72.2683 19.9157C85.7635 6.72145 111.171 7.05495 127.754 9.21938C135.345 10.2102 141.031 14.35 148.152 16.8516C154.457 19.0668 159.34 19.9565 166.118 20.1942C179.181 20.6525 189.49 16.0221 202 13.4533" stroke="#93961F" stroke-linecap="round"/>
</svg>
