<svg width="770" height="452" viewBox="0 0 770 452" fill="none" xmlns="http://www.w3.org/2000/svg">
<path d="M624.144 79.0327L624.176 78.5338L625.174 78.5987L625.141 79.0976L624.144 79.0327ZM553.346 220.156L553.368 220.655L553.368 220.655L553.346 220.156ZM488.641 154.384L489.105 154.199L489.105 154.199L488.641 154.384ZM475.735 98.8774L476.234 98.9176L476.234 98.9177L475.735 98.8774ZM485.712 119.279L485.222 119.377L485.222 119.377L485.712 119.279ZM483.952 176.687L484.413 176.879L484.413 176.879L483.952 176.687ZM449.316 190.271L449.412 189.781L449.412 189.781L449.316 190.271ZM429.896 189.307L430.383 189.419L430.383 189.419L429.896 189.307ZM422.042 237.466L422.518 237.618L422.518 237.618L422.042 237.466ZM383.51 244.279L383.372 244.759L383.372 244.759L383.51 244.279ZM320.272 259.684L319.855 259.409L319.855 259.409L320.272 259.684ZM296.61 324.758L296.149 324.566L296.149 324.566L296.61 324.758ZM281.191 335.673L281.199 336.173L281.199 336.173L281.191 335.673ZM229.002 402.244L228.563 402.004L228.563 402.004L229.002 402.244ZM177.158 449.186L176.946 449.64L176.946 449.64L177.158 449.186ZM133.122 386.612L132.872 386.179L133.738 385.679L133.988 386.112L133.122 386.612ZM625.142 78.5294L625.134 79.0293L624.134 79.0129L624.143 78.513L625.142 78.5294ZM627.889 62.1231L627.409 61.9824L627.409 61.9823L627.889 62.1231ZM643.118 30.2399L642.749 29.9026L642.749 29.9026L643.118 30.2399ZM659.611 23.492L659.746 23.0106L659.746 23.0106L659.611 23.492ZM676.014 46.7315L675.592 46.9989L675.592 46.9989L676.014 46.7315ZM704.291 64.3601L704.527 64.8008L704.527 64.8008L704.291 64.3601ZM718.673 74.0277L718.332 74.3939L718.332 74.3939L718.673 74.0277ZM723.924 70.9567L724.403 71.0977L724.403 71.0977L723.924 70.9567ZM728.254 54.655L727.777 54.5053L727.777 54.5053L728.254 54.655ZM730.925 45.6321L730.434 45.5386L730.434 45.5385L730.925 45.6321ZM734.895 36.0026L735.334 36.2425L735.334 36.2425L734.895 36.0026ZM746.155 18.8669L746.556 19.1655L746.556 19.1655L746.155 18.8669ZM761.71 2.26158L761.398 1.87056L761.398 1.87054L761.71 2.26158ZM764.344 1.80679L764.796 1.59189L764.796 1.59191L764.344 1.80679ZM769.287 7.15992L769.696 7.44675L769.123 8.26584L768.713 7.97902L769.287 7.15992ZM133.885 385.523C134.001 385.774 133.891 386.071 133.64 386.186C133.39 386.302 133.092 386.192 132.977 385.942L133.885 385.523ZM122.139 360.932L121.69 361.153L121.69 361.153L122.139 360.932ZM107.809 338.016L108.138 337.639L108.138 337.639L107.809 338.016ZM91.8041 331.383L92.2161 331.1L92.2161 331.1L91.8041 331.383ZM80.9055 310.793L80.4745 311.046L80.4745 311.046L80.9055 310.793ZM68.0388 297.393L67.8308 297.848L67.8308 297.848L68.0388 297.393ZM55.5944 295.374L55.7134 295.86L55.7134 295.86L55.5944 295.374ZM51.9148 296.932L51.6804 296.49L51.6808 296.49L51.9148 296.932ZM49.7941 298.124L49.8539 298.62L49.8537 298.62L49.7941 298.124ZM45.3171 297.893L45.369 298.39L45.3689 298.39L45.3171 297.893ZM32.3521 306.486L32.6921 306.853L32.6921 306.853L32.3521 306.486ZM22.8439 311.543L22.8024 312.041L22.8023 312.041L22.8439 311.543ZM14.0504 307.409L13.9447 307.898L13.9446 307.898L14.0504 307.409ZM6.26163 314.003L5.79053 313.836L5.79059 313.836L6.26163 314.003ZM2.48372 330.172L1.99091 330.087L1.99091 330.087L2.48372 330.172ZM1.4965 339.767C1.46385 340.041 1.2151 340.237 0.940891 340.204C0.666686 340.171 0.470868 339.923 0.503519 339.648L1.4965 339.767ZM625.141 79.0976C622.663 117.186 614.359 152.112 601.884 177.741C589.424 203.336 572.719 219.815 553.368 220.655L553.324 219.656C572.098 218.841 588.565 202.817 600.985 177.303C613.388 151.822 621.671 117.031 624.144 79.0327L625.141 79.0976ZM553.368 220.655C540.365 221.22 528.101 214.81 517.089 203.232C506.078 191.654 496.277 174.87 488.177 154.569L489.105 154.199C497.178 174.431 506.92 191.089 517.814 202.542C528.706 213.995 540.708 220.204 553.324 219.656L553.368 220.655ZM488.177 154.569C485.811 148.643 482.215 139.234 479.391 129.055C476.569 118.886 474.505 107.901 475.237 98.8371L476.234 98.9177C475.516 107.802 477.541 118.65 480.354 128.787C483.164 138.914 486.745 148.284 489.105 154.199L488.177 154.569ZM475.237 98.8372C475.282 98.2814 475.363 97.8292 475.492 97.4927C475.615 97.1748 475.837 96.8227 476.248 96.7356C476.645 96.6518 476.987 96.8658 477.217 97.065C477.466 97.2807 477.716 97.5918 477.962 97.956C478.943 99.4075 480.16 102.145 481.344 105.14C482.535 108.151 483.711 111.473 484.607 114.129C485.055 115.457 485.433 116.621 485.709 117.497C485.979 118.357 486.161 118.973 486.203 119.182L485.222 119.377C485.194 119.235 485.033 118.682 484.755 117.797C484.482 116.928 484.105 115.772 483.659 114.449C482.767 111.803 481.596 108.498 480.414 105.508C479.226 102.501 478.044 99.8636 477.134 98.516C476.907 98.1805 476.715 97.9528 476.563 97.8213C476.392 97.6733 476.372 97.7315 476.455 97.714C476.554 97.6931 476.511 97.6293 476.425 97.8521C476.347 98.0564 476.276 98.3973 476.234 98.9176L475.237 98.8372ZM486.203 119.182C487.941 127.895 489.106 138.445 489.032 148.745C488.959 159.037 487.651 169.121 484.413 176.879L483.49 176.494C486.656 168.908 487.96 158.972 488.032 148.738C488.105 138.512 486.948 128.03 485.222 119.377L486.203 119.182ZM484.413 176.879C480.425 186.434 474.267 190.46 467.742 191.796C461.268 193.122 454.473 191.79 449.22 190.762L449.412 189.781C454.698 190.815 461.295 192.096 467.541 190.816C473.737 189.547 479.627 185.749 483.49 176.494L484.413 176.879ZM449.22 190.762C448.737 190.667 448.102 190.431 447.389 190.133C446.669 189.831 445.826 189.447 444.92 189.04C443.097 188.221 440.994 187.298 438.942 186.672C436.876 186.043 434.938 185.74 433.422 186.089C432.676 186.261 432.04 186.589 431.534 187.11C431.027 187.631 430.622 188.374 430.383 189.419L429.408 189.196C429.68 188.011 430.157 187.091 430.817 186.412C431.478 185.733 432.295 185.322 433.197 185.115C434.979 184.704 437.127 185.074 439.233 185.716C441.353 186.362 443.509 187.31 445.329 188.128C446.245 188.539 447.07 188.915 447.776 189.211C448.49 189.51 449.04 189.708 449.412 189.781L449.22 190.762ZM430.383 189.419C428.634 197.059 427.833 205.445 426.886 213.773C425.942 222.083 424.853 230.331 422.518 237.618L421.566 237.313C423.867 230.132 424.948 221.975 425.893 213.66C426.836 205.364 427.644 196.905 429.408 189.196L430.383 189.419ZM422.518 237.618C420.539 243.794 417.786 247.588 414.539 249.702C411.289 251.818 407.617 252.204 403.903 251.716C400.197 251.23 396.409 249.868 392.887 248.448C389.337 247.016 386.091 245.54 383.372 244.759L383.648 243.798C386.434 244.598 389.778 246.116 393.261 247.521C396.773 248.937 400.461 250.256 404.034 250.725C407.598 251.193 411.006 250.809 413.994 248.864C416.985 246.916 419.63 243.354 421.566 237.313L422.518 237.618ZM383.372 244.759C372.48 241.63 361.584 238.22 351.009 239.192C340.494 240.158 330.241 245.469 320.69 259.959L319.855 259.409C329.547 244.705 340.055 239.194 350.918 238.196C361.722 237.204 372.823 240.688 383.648 243.798L383.372 244.759ZM320.69 259.959C315.433 267.935 311.644 279.065 308.107 290.792C304.579 302.489 301.303 314.777 297.072 324.95L296.149 324.566C300.354 314.455 303.607 302.25 307.15 290.503C310.684 278.787 314.507 267.523 319.855 259.409L320.69 259.959ZM297.072 324.95C294.753 330.526 292.493 333.355 289.889 334.767C287.304 336.167 284.459 336.117 281.199 336.173L281.182 335.173C284.528 335.116 287.089 335.146 289.412 333.887C291.715 332.639 293.861 330.067 296.149 324.566L297.072 324.95ZM281.199 336.173C275.996 336.261 271.098 338.682 266.421 342.755C261.742 346.83 257.321 352.529 253.083 359.099C244.598 372.256 236.944 388.748 229.441 402.484L228.563 402.004C236.017 388.36 243.734 371.749 252.243 358.557C256.502 351.953 260.983 346.165 265.764 342.001C270.546 337.836 275.663 335.267 281.182 335.173L281.199 336.173ZM229.441 402.484C222.269 415.614 214.415 429.799 205.77 439.498C201.446 444.349 196.892 448.114 192.09 450.053C187.267 452 182.213 452.096 176.946 449.64L177.369 448.733C182.37 451.066 187.136 450.975 191.716 449.126C196.316 447.268 200.748 443.628 205.023 438.832C213.577 429.236 221.377 415.161 228.563 402.004L229.441 402.484ZM176.946 449.64C172.579 447.602 168.48 444.038 164.589 439.519C160.697 434.997 156.993 429.493 153.424 423.545C149.854 417.597 146.412 411.191 143.047 404.861C139.68 398.528 136.392 392.274 133.122 386.612L133.988 386.112C137.269 391.793 140.567 398.066 143.93 404.392C147.295 410.722 150.726 417.107 154.281 423.031C157.836 428.955 161.507 434.405 165.347 438.866C169.19 443.33 173.181 446.779 177.369 448.733L176.946 449.64ZM624.143 78.513C624.244 72.3429 625.924 67.0434 627.409 61.9824L628.368 62.2639C626.874 67.3563 625.241 72.5201 625.142 78.5294L624.143 78.513ZM627.409 61.9823C631.194 49.085 636.189 37.082 642.749 29.9026L643.488 30.5772C637.092 37.5769 632.147 49.3884 628.368 62.2639L627.409 61.9823ZM642.749 29.9026C647.537 24.6638 654.111 21.4321 659.746 23.0106L659.477 23.9735C654.375 22.5447 648.167 25.4559 643.488 30.5772L642.749 29.9026ZM659.746 23.0106C661.552 23.5164 663.175 24.7807 664.66 26.4548C666.148 28.1323 667.533 30.2606 668.854 32.5578C670.175 34.8557 671.445 37.3466 672.694 39.749C673.948 42.1581 675.18 44.4786 676.437 46.4641L675.592 46.9989C674.31 44.9732 673.059 42.6176 671.807 40.2104C670.552 37.7965 669.294 35.3307 667.987 33.0562C666.679 30.7808 665.333 28.7207 663.912 27.1184C662.487 25.5128 661.02 24.4058 659.477 23.9735L659.746 23.0106ZM676.437 46.4641C680.607 53.0516 684.996 58.805 689.623 62.2117C691.931 63.911 694.276 65.0104 696.665 65.3523C699.046 65.6931 701.504 65.2865 704.055 63.9194L704.527 64.8008C701.801 66.262 699.129 66.7151 696.523 66.3422C693.926 65.9704 691.428 64.7828 689.03 63.0169C684.245 59.4934 679.773 53.6042 675.592 46.9989L676.437 46.4641ZM704.055 63.9194C705.605 63.0886 707.054 63.007 708.421 63.456C709.762 63.8966 710.985 64.8355 712.137 65.9702C713.291 67.1065 714.416 68.4831 715.54 69.8359C716.673 71.1989 717.81 72.543 719.013 73.6614L718.332 74.3939C717.075 73.2256 715.9 71.8338 714.771 70.4751C713.633 69.1063 712.545 67.7757 711.436 66.6827C710.324 65.588 709.233 64.7754 708.109 64.4061C707.01 64.0452 705.844 64.095 704.527 64.8008L704.055 63.9194ZM719.013 73.6614C719.602 74.2085 720.09 74.5477 720.498 74.7063C720.885 74.8568 721.177 74.8379 721.441 74.6959C721.732 74.5388 722.059 74.1934 722.408 73.5416C722.754 72.8964 723.096 72.001 723.444 70.8158L724.403 71.0977C724.047 72.3121 723.682 73.2818 723.29 74.014C722.901 74.7396 722.457 75.2841 721.915 75.5763C721.345 75.8834 720.74 75.8731 720.136 75.6385C719.553 75.412 718.955 74.9724 718.332 74.3939L719.013 73.6614ZM723.444 70.8158C724.218 68.1806 724.89 65.4176 725.575 62.6502C726.259 59.8878 726.956 57.1225 727.777 54.5053L728.731 54.8046C727.921 57.3888 727.23 60.1264 726.546 62.8906C725.863 65.6497 725.185 68.437 724.403 71.0977L723.444 70.8158ZM727.777 54.5053C728.719 51.5052 729.814 48.7959 730.434 45.5386L731.416 45.7256C730.782 49.0584 729.644 51.8958 728.731 54.8047L727.777 54.5053ZM730.434 45.5385C731.186 41.5876 733.022 38.3855 734.456 35.7627L735.334 36.2425C733.885 38.8922 732.134 41.956 731.416 45.7256L730.434 45.5385ZM734.456 35.7627C737.954 29.3663 741.866 23.7889 745.754 18.5682L746.556 19.1655C742.679 24.3714 738.799 29.9058 735.334 36.2425L734.456 35.7627ZM745.754 18.5682C750.646 11.9993 755.937 6.22258 761.398 1.87056L762.021 2.65261C756.646 6.93617 751.413 12.6435 746.556 19.1655L745.754 18.5682ZM761.398 1.87054C761.656 1.66511 761.886 1.44613 762.138 1.22073C762.373 1.01162 762.641 0.784548 762.921 0.645815C763.221 0.497787 763.599 0.420793 763.985 0.619463C764.332 0.797422 764.586 1.15054 764.796 1.59189L763.893 2.02169C763.713 1.64331 763.579 1.53494 763.528 1.5089C763.518 1.50356 763.49 1.48004 763.364 1.54218C763.22 1.61362 763.044 1.75342 762.804 1.96709C762.583 2.16449 762.308 2.42421 762.021 2.65263L761.398 1.87054ZM764.796 1.59191C766.016 4.15572 767.706 6.05264 769.287 7.15992L768.713 7.97902C766.979 6.76446 765.181 4.72821 763.893 2.02168L764.796 1.59191ZM132.977 385.942C129.173 377.696 125.604 369.115 121.69 361.153L122.587 360.712C126.504 368.68 130.107 377.333 133.885 385.523L132.977 385.942ZM121.69 361.153C119.58 356.859 117.383 352.35 115.027 348.313C112.668 344.272 110.172 340.743 107.48 338.392L108.138 337.639C110.954 340.099 113.515 343.74 115.89 347.809C118.268 351.883 120.482 356.427 122.587 360.712L121.69 361.153ZM107.48 338.392C104.911 336.149 102.343 336.055 99.4635 336.055V335.055C102.363 335.055 105.269 335.134 108.138 337.639L107.48 338.392ZM99.4635 336.055C97.9751 336.055 96.5923 335.911 95.2533 335.272C93.9114 334.631 92.6645 333.517 91.3921 331.666L92.2161 331.1C93.4217 332.854 94.5454 333.826 95.6842 334.369C96.8257 334.915 98.0336 335.055 99.4635 335.055V336.055ZM91.3921 331.666C89.3456 328.69 87.5572 325.127 85.8144 321.525C84.0653 317.91 82.3633 314.258 80.4745 311.046L81.3364 310.54C83.2515 313.795 84.9764 317.497 86.7146 321.09C88.459 324.695 90.218 328.194 92.2161 331.1L91.3921 331.666ZM80.4745 311.046C76.6934 304.618 72.4863 299.977 67.8308 297.848L68.2468 296.938C73.1772 299.194 77.5151 304.043 81.3364 310.54L80.4745 311.046ZM67.8308 297.848C63.8586 296.03 59.6496 294.895 55.7134 295.86L55.4753 294.889C59.7422 293.843 64.2076 295.09 68.2469 296.938L67.8308 297.848ZM55.7134 295.86C54.5349 296.149 53.3648 296.73 52.1488 297.374L51.6808 296.49C52.8936 295.848 54.1628 295.21 55.4754 294.889L55.7134 295.86ZM52.1492 297.373C51.8517 297.531 51.551 297.769 51.1455 298.042C50.7865 298.283 50.3298 298.563 49.8539 298.62L49.7343 297.627C49.9446 297.602 50.2207 297.459 50.5868 297.212C50.9063 296.997 51.3228 296.68 51.6804 296.49L52.1492 297.373ZM49.8537 298.62C49.0416 298.717 48.2329 298.61 47.4947 298.512C46.7345 298.411 46.0453 298.32 45.369 298.39L45.2652 297.396C46.0804 297.311 46.8904 297.423 47.6262 297.521C48.3841 297.621 49.0681 297.707 49.7346 297.627L49.8537 298.62ZM45.3689 298.39C43.2331 298.613 41.1033 299.748 38.9668 301.344C36.8319 302.938 34.7511 304.943 32.6921 306.853L32.0122 306.119C34.047 304.232 36.1791 302.177 38.3684 300.542C40.5561 298.909 42.8619 297.646 45.2653 297.396L45.3689 298.39ZM32.6921 306.853C31.1632 308.27 29.6034 309.637 27.9851 310.611C26.3624 311.588 24.6435 312.194 22.8024 312.041L22.8855 311.044C24.4442 311.174 25.9517 310.668 27.4692 309.755C28.9912 308.838 30.4856 307.535 32.0122 306.119L32.6921 306.853ZM22.8023 312.041C21.1398 311.902 19.5946 310.956 18.1704 310.047C16.6977 309.107 15.346 308.201 13.9447 307.898L14.1562 306.921C15.7741 307.271 17.2991 308.305 18.7084 309.204C20.1662 310.135 21.5082 310.929 22.8856 311.044L22.8023 312.041ZM13.9446 307.898C12.549 307.596 11.2326 307.872 10.0282 308.838C8.80442 309.821 7.66912 311.541 6.73267 314.171L5.79059 313.836C6.75992 311.113 7.97834 309.202 9.40217 308.059C10.8454 306.9 12.4705 306.555 14.1563 306.921L13.9446 307.898ZM6.73274 314.171C5.09928 318.765 3.90877 324.822 2.97652 330.256L1.99091 330.087C2.92302 324.653 4.12513 318.519 5.79053 313.836L6.73274 314.171ZM2.97652 330.256C2.43971 333.387 1.87787 336.564 1.4965 339.767L0.503519 339.648C0.888606 336.414 1.45572 333.208 1.99091 330.087L2.97652 330.256Z" fill="white"/>
</svg>
