<svg width="3002" height="707" viewBox="0 0 3002 707" fill="none" xmlns="http://www.w3.org/2000/svg">
<path d="M2436.61 123.251L2436.69 122.757L2437.68 122.917L2437.6 123.411L2436.61 123.251ZM2158.6 344.425L2158.61 344.925L2158.61 344.925L2158.6 344.425ZM1905.85 241.359L1906.2 241.006L1906.2 241.006L1905.85 241.359ZM1855.44 154.377L1855.93 154.476L1855.93 154.476L1855.44 154.377ZM1894.41 186.348L1893.96 186.571L1893.96 186.571L1894.41 186.348ZM1887.53 276.308L1887.88 276.668L1887.88 276.668L1887.53 276.308ZM1752.23 297.595L1752.27 297.097L1752.27 297.097L1752.23 297.595ZM1676.37 296.084L1676.81 296.332L1676.81 296.332L1676.37 296.084ZM1645.7 371.55L1646.09 371.862L1646.09 371.862L1645.7 371.55ZM1495.18 382.227L1495.12 382.723L1495.12 382.723L1495.18 382.227ZM1248.16 406.367L1247.9 405.94L1247.9 405.94L1248.16 406.367ZM1155.73 508.341L1155.38 507.981L1155.38 507.981L1155.73 508.341ZM1095.5 525.444L1095.5 525.944L1095.5 525.944L1095.5 525.444ZM891.633 629.764L891.337 629.361L891.337 629.361L891.633 629.764ZM689.115 703.325L689.024 703.816L689.023 703.816L689.115 703.325ZM518.508 605.286L518.097 605.001L518.668 604.18L519.079 604.465L518.508 605.286ZM2437.6 122.499L2437.58 122.999L2436.58 122.958L2436.6 122.458L2437.6 122.499ZM2449.78 96.7822L2449.38 96.487L2449.38 96.487L2449.78 96.7822ZM2509.28 46.82L2509.07 46.3622L2509.07 46.3622L2509.28 46.82ZM2573.7 36.2458L2573.76 35.749L2573.76 35.749L2573.7 36.2458ZM2637.77 72.6629L2637.51 73.0853L2637.51 73.0853L2637.77 72.6629ZM2748.23 100.288L2748.33 100.776L2748.33 100.776L2748.23 100.288ZM2804.41 115.437L2804.23 115.906L2804.23 115.906L2804.41 115.437ZM2824.92 110.625L2825.32 110.92L2825.32 110.92L2824.92 110.625ZM2841.84 85.0793L2841.44 84.7713L2841.44 84.7713L2841.84 85.0793ZM2852.27 70.9401L2851.82 70.7258L2851.82 70.7257L2852.27 70.9401ZM2867.78 55.8503L2868.07 56.2535L2868.07 56.2535L2867.78 55.8503ZM2911.76 28.9981L2912 29.4383L2912 29.4383L2911.76 28.9981ZM2972.52 2.97695L2972.37 2.50069L2972.37 2.50069L2972.52 2.97695ZM2982.81 2.26427L2983.14 1.88194L2983.14 1.88196L2982.81 2.26427ZM3001.14 10.8132L3001.62 10.9485L3001.35 11.9112L3000.86 11.776L3001.14 10.8132ZM518.636 603.512C518.844 603.693 518.866 604.009 518.685 604.218C518.504 604.426 518.188 604.448 517.98 604.267L518.636 603.512ZM474.198 565.027L473.881 565.414L473.881 565.414L474.198 565.027ZM418.223 529.116L418.388 528.644L418.388 528.644L418.223 529.116ZM355.703 518.722L355.955 518.291L355.955 518.291L355.703 518.722ZM313.131 486.457L312.849 486.87L312.849 486.87L313.131 486.457ZM262.87 465.459L262.78 465.95L262.78 465.95L262.87 465.459ZM214.259 462.295L214.308 462.793L214.308 462.793L214.259 462.295ZM199.886 464.736L199.782 464.247L199.782 464.247L199.886 464.736ZM191.602 466.603L191.626 467.103L191.626 467.103L191.602 466.603ZM174.113 466.242L174.134 466.742L174.134 466.742L174.113 466.242ZM123.469 479.708L123.644 480.176L123.643 480.176L123.469 479.708ZM86.3276 487.632L86.3109 488.131L86.3109 488.131L86.3276 487.632ZM51.978 481.155L51.9348 481.653L51.9347 481.653L51.978 481.155ZM21.5531 491.487L21.1789 491.156L21.1791 491.156L21.5531 491.487ZM6.79559 516.824L6.33583 516.627L6.33586 516.627L6.79559 516.824ZM1.47919 531.909C1.40062 532.174 1.12231 532.325 0.857587 532.246C0.59286 532.168 0.441957 531.89 0.520535 531.625L1.47919 531.909ZM2437.6 123.411C2418.21 242.901 2307.76 342.326 2158.61 344.925L2158.59 343.925C2307.3 341.334 2417.31 242.222 2436.61 123.251L2437.6 123.411ZM2158.61 344.925C2058.39 346.671 1968.76 305.317 1905.49 241.711L1906.2 241.006C1969.29 304.433 2058.67 345.666 2158.59 343.925L2158.61 344.925ZM1905.49 241.711C1896.26 232.428 1882.21 217.689 1871.18 201.741C1865.67 193.767 1860.9 185.476 1857.86 177.401C1854.82 169.329 1853.5 161.436 1854.95 154.279L1855.93 154.476C1854.53 161.382 1855.79 169.074 1858.79 177.049C1861.79 185.02 1866.52 193.237 1872.01 201.172C1882.98 217.044 1896.98 231.732 1906.2 241.006L1905.49 241.711ZM1854.95 154.279C1855.13 153.376 1855.45 152.656 1855.95 152.143C1856.45 151.621 1857.08 151.35 1857.8 151.29C1859.19 151.172 1860.91 151.838 1862.77 152.942C1866.53 155.171 1871.25 159.424 1875.88 164.128C1880.53 168.843 1885.12 174.045 1888.62 178.206C1890.37 180.287 1891.85 182.109 1892.92 183.481C1893.46 184.167 1893.9 184.743 1894.22 185.183C1894.53 185.607 1894.76 185.942 1894.86 186.126L1893.96 186.571C1893.91 186.479 1893.74 186.218 1893.42 185.774C1893.1 185.346 1892.67 184.779 1892.14 184.098C1891.07 182.736 1889.6 180.923 1887.86 178.85C1884.37 174.702 1879.79 169.52 1875.17 164.83C1870.54 160.131 1865.9 155.96 1862.26 153.802C1860.43 152.714 1858.94 152.196 1857.89 152.286C1857.38 152.329 1856.98 152.51 1856.67 152.835C1856.35 153.169 1856.08 153.692 1855.93 154.476L1854.95 154.279ZM1894.86 186.125C1908.42 213.409 1913.13 252.393 1887.88 276.668L1887.18 275.947C1911.96 252.132 1907.46 213.714 1893.96 186.571L1894.86 186.125ZM1887.88 276.668C1872.41 291.529 1848.74 297.671 1823.86 299.715C1798.97 301.76 1772.77 299.709 1752.2 298.093L1752.27 297.097C1772.86 298.713 1798.98 300.756 1823.78 298.719C1848.59 296.68 1871.98 290.562 1887.18 275.947L1887.88 276.668ZM1752.2 298.093C1748.82 297.829 1742.87 296.723 1735.77 295.443C1728.66 294.161 1720.35 292.697 1712.22 291.702C1704.08 290.707 1696.14 290.185 1689.76 290.776C1686.56 291.071 1683.78 291.642 1681.56 292.556C1679.35 293.471 1677.73 294.713 1676.81 296.332L1675.94 295.837C1677.01 293.962 1678.84 292.599 1681.18 291.632C1683.53 290.665 1686.42 290.08 1689.66 289.78C1696.16 289.179 1704.18 289.712 1712.34 290.71C1720.5 291.708 1728.83 293.177 1735.95 294.459C1743.08 295.745 1748.96 296.837 1752.27 297.097L1752.2 298.093ZM1676.81 296.332C1669.98 308.292 1666.86 321.414 1663.16 334.471C1659.47 347.504 1655.21 360.442 1646.09 371.862L1645.31 371.238C1654.29 359.986 1658.51 347.218 1662.2 334.199C1665.88 321.203 1669.04 307.929 1675.94 295.837L1676.81 296.332ZM1646.09 371.862C1630.63 391.214 1603.52 395.103 1575.07 393.604C1560.83 392.854 1546.2 390.75 1532.46 388.527C1518.71 386.302 1505.86 383.961 1495.12 382.723L1495.24 381.73C1506 382.971 1518.9 385.32 1532.62 387.54C1546.35 389.762 1560.93 391.858 1575.12 392.606C1603.53 394.102 1630.18 390.175 1645.31 371.238L1646.09 371.862ZM1495.12 382.723C1410.24 372.942 1323.42 361.151 1248.42 406.794L1247.9 405.94C1323.24 360.085 1410.45 371.959 1495.24 381.73L1495.12 382.723ZM1248.42 406.794C1227.79 419.349 1212.97 436.832 1199.17 455.189C1185.38 473.526 1172.59 492.771 1156.08 508.701L1155.38 507.981C1171.82 492.124 1184.53 472.988 1198.37 454.588C1212.19 436.209 1227.1 418.598 1247.9 405.94L1248.42 406.794ZM1156.08 508.701C1147.01 517.443 1138.32 521.72 1128.65 523.824C1119 525.922 1108.38 525.856 1095.5 525.944L1095.49 524.944C1108.41 524.856 1118.91 524.917 1128.43 522.847C1137.93 520.783 1146.45 516.596 1155.38 507.981L1156.08 508.701ZM1095.5 525.944C1053.74 526.23 1017.47 541.536 984.323 562.154C951.15 582.788 921.187 608.68 891.929 630.167L891.337 629.361C920.502 607.942 950.584 581.962 983.794 561.305C1017.03 540.633 1053.48 525.232 1095.49 524.944L1095.5 525.944ZM891.929 630.167C835.873 671.336 769.488 718.873 689.024 703.816L689.207 702.833C769.183 717.799 835.22 670.575 891.337 629.361L891.929 630.167ZM689.023 703.816C655.509 697.543 625.656 681.778 597.801 663.156C583.873 653.846 570.438 643.816 557.293 633.897C544.145 623.975 531.291 614.167 518.508 605.286L519.079 604.465C531.881 613.36 544.755 623.183 557.896 633.099C571.04 643.017 584.455 653.032 598.357 662.325C626.161 680.913 655.884 696.596 689.207 702.833L689.023 703.816ZM2436.6 122.458C2436.8 117.578 2438.56 113.064 2440.97 108.789C2443.38 104.52 2446.48 100.452 2449.38 96.487L2450.19 97.0774C2447.27 101.068 2444.22 105.076 2441.84 109.281C2439.47 113.48 2437.79 117.836 2437.6 122.499L2436.6 122.458ZM2449.38 96.487C2464.19 76.2458 2483.67 57.5172 2509.07 46.3622L2509.48 47.2778C2484.28 58.3418 2464.92 76.9314 2450.19 97.0774L2449.38 96.487ZM2509.07 46.3622C2527.63 38.2151 2552.69 33.3814 2573.76 35.749L2573.65 36.7427C2552.78 34.3978 2527.9 39.1903 2509.48 47.2778L2509.07 46.3622ZM2573.76 35.749C2586.96 37.2327 2598.1 43.248 2608.4 50.4326C2613.54 54.024 2618.49 57.9174 2623.38 61.6867C2628.27 65.4602 2633.1 69.1113 2638.04 72.2406L2637.51 73.0853C2632.53 69.9288 2627.66 66.2524 2622.77 62.4786C2617.87 58.7005 2612.95 54.8266 2607.82 51.2527C2597.58 44.1067 2586.61 38.1992 2573.65 36.7427L2573.76 35.749ZM2638.04 72.2406C2670.63 92.8923 2707.09 108.621 2748.12 99.7987L2748.33 100.776C2706.91 109.683 2670.16 93.7806 2637.51 73.0853L2638.04 72.2406ZM2748.12 99.7987C2759.45 97.3636 2768.79 99.3876 2777.69 102.904C2782.13 104.659 2786.48 106.789 2790.89 108.919C2795.31 111.051 2799.8 113.186 2804.58 114.969L2804.23 115.906C2799.4 114.105 2794.87 111.952 2790.45 109.82C2786.03 107.684 2781.73 105.572 2777.33 103.834C2768.54 100.363 2759.41 98.3959 2748.33 100.776L2748.12 99.7987ZM2804.58 114.969C2809.29 116.722 2812.93 117.359 2816.04 116.685C2819.14 116.016 2821.81 114.033 2824.52 110.329L2825.32 110.92C2822.53 114.737 2819.67 116.924 2816.25 117.663C2812.86 118.397 2808.99 117.68 2804.23 115.906L2804.58 114.969ZM2824.52 110.329C2827.54 106.199 2830.17 101.87 2832.84 97.5338C2835.52 93.2039 2838.24 88.8708 2841.44 84.7713L2842.23 85.3873C2839.06 89.4384 2836.37 93.7285 2833.69 98.059C2831.02 102.383 2828.38 106.751 2825.32 110.92L2824.52 110.329ZM2841.44 84.7713C2842.35 83.6062 2843.31 82.4605 2844.27 81.3215C2845.23 80.1805 2846.18 79.0471 2847.1 77.8974C2848.94 75.5976 2850.62 73.2556 2851.82 70.7258L2852.72 71.1544C2851.47 73.7881 2849.74 76.2008 2847.88 78.5222C2846.95 79.6832 2845.99 80.8271 2845.03 81.9645C2844.08 83.1038 2843.13 84.2375 2842.23 85.3874L2841.44 84.7713ZM2851.82 70.7257C2853.3 67.6127 2855.82 64.8202 2858.66 62.3021C2861.49 59.7829 2864.67 57.5066 2867.48 55.4472L2868.07 56.2535C2865.25 58.3251 2862.11 60.5691 2859.32 63.0497C2856.53 65.5315 2854.12 68.2183 2852.72 71.1545L2851.82 70.7257ZM2867.48 55.4472C2881.11 45.4494 2896.35 36.7298 2911.53 28.5579L2912 29.4383C2896.84 37.6049 2881.64 46.2981 2868.07 56.2535L2867.48 55.4472ZM2911.53 28.5579C2930.59 18.2878 2951.17 9.27718 2972.37 2.50069L2972.68 3.4532C2951.54 10.209 2931.02 19.1942 2912 29.4383L2911.53 28.5579ZM2972.37 2.50069C2973.42 2.16422 2974.39 1.79555 2975.33 1.4599C2976.26 1.12781 2977.15 0.829269 2978.02 0.65686C2979.79 0.30535 2981.47 0.477371 2983.14 1.88194L2982.49 2.64661C2981.11 1.48206 2979.77 1.33056 2978.22 1.63774C2977.43 1.79468 2976.59 2.07103 2975.67 2.40147C2974.75 2.72834 2973.75 3.10982 2972.68 3.45321L2972.37 2.50069ZM2983.14 1.88196C2987.96 5.95092 2994.7 9.00616 3001.14 10.8132L3000.86 11.776C2994.35 9.94464 2987.46 6.83646 2982.49 2.64659L2983.14 1.88196ZM517.98 604.267C503.141 591.363 489.172 577.894 473.881 565.414L474.514 564.639C489.81 577.125 503.858 590.661 518.636 603.512L517.98 604.267ZM473.881 565.414C457.399 551.96 439.473 537.092 418.057 529.588L418.388 528.644C440 536.217 458.062 551.21 474.514 564.639L473.881 565.414ZM418.057 529.588C407.528 525.899 396.918 525.759 385.623 525.759V524.759C396.904 524.759 407.676 524.892 418.388 528.644L418.057 529.588ZM385.623 525.759C374.194 525.759 365.246 524.87 355.451 519.154L355.955 518.291C365.52 523.872 374.253 524.759 385.623 524.759V525.759ZM355.451 519.154C347.514 514.523 340.558 508.967 333.745 503.318C326.924 497.662 320.254 491.92 312.849 486.87L313.412 486.044C320.866 491.128 327.583 496.91 334.383 502.548C341.192 508.194 348.094 513.704 355.955 518.291L355.451 519.154ZM312.849 486.87C298.051 476.777 281.426 469.372 262.78 465.95L262.961 464.967C281.759 468.416 298.513 475.882 313.412 486.044L312.849 486.87ZM262.78 465.95C247.153 463.081 230.263 461.224 214.308 462.793L214.21 461.797C230.299 460.215 247.293 462.09 262.961 464.967L262.78 465.95ZM214.308 462.793C209.473 463.268 204.732 464.217 199.99 465.225L199.782 464.247C204.527 463.239 209.315 462.279 214.21 461.797L214.308 462.793ZM199.99 465.225C198.728 465.493 197.362 465.918 195.92 466.308C194.499 466.692 193.023 467.035 191.626 467.103L191.578 466.104C192.861 466.042 194.248 465.724 195.659 465.343C197.049 464.967 198.485 464.523 199.782 464.247L199.99 465.225ZM191.626 467.103C188.709 467.243 185.768 467.09 182.85 466.935C179.923 466.779 177.019 466.621 174.134 466.742L174.093 465.742C177.034 465.619 179.986 465.781 182.903 465.936C185.829 466.092 188.719 466.242 191.578 466.104L191.626 467.103ZM174.134 466.742C156.5 467.478 139.661 474.217 123.644 480.176L123.295 479.239C139.26 473.299 156.265 466.487 174.093 465.742L174.134 466.742ZM123.643 480.176C111.704 484.617 99.6982 488.579 86.3109 488.131L86.3443 487.132C99.5184 487.572 111.363 483.677 123.295 479.239L123.643 480.176ZM86.3109 488.131C80.3127 487.93 74.6255 486.553 68.9984 485.112C63.3567 483.667 57.782 482.16 51.9348 481.653L52.0213 480.656C57.9679 481.173 63.6306 482.705 69.2465 484.143C74.8772 485.585 80.4679 486.935 86.3444 487.132L86.3109 488.131ZM51.9347 481.653C40.0022 480.616 29.2353 483.584 21.927 491.819L21.1791 491.156C28.7597 482.614 39.8808 479.601 52.0213 480.656L51.9347 481.653ZM21.9272 491.819C15.5406 499.024 10.8931 508.513 7.25532 517.021L6.33586 516.627C9.98064 508.104 14.6794 498.489 21.1789 491.156L21.9272 491.819ZM7.25535 517.02C5.15708 521.929 2.96605 526.9 1.47919 531.909L0.520535 531.625C2.02764 526.547 4.24659 521.515 6.33583 516.627L7.25535 517.02Z" fill="white"/>
</svg>
