<svg width="1920" height="902" viewBox="0 0 1920 902" fill="none" xmlns="http://www.w3.org/2000/svg">
<path d="M1920 1C1920 140.767 1821.32 269.923 1666.41 292.657C1562.32 307.934 1461.97 272.286 1385.33 207.574C1362.93 188.668 1316.87 147.286 1318.02 114.168C1318.57 98.2832 1363.05 149.165 1364.13 152.168C1382.85 181.689 1394.16 219.233 1372.13 250.219C1345.13 288.204 1278.1 290.917 1234.61 292.657C1220.48 293.223 1161.17 283.841 1155.22 300.978C1144.98 330.475 1151.04 363.397 1135.99 391.887C1110.57 440.003 1026.49 424.132 980.796 424.132C890.651 424.132 797.887 422.055 727.211 484.669C688.262 519.176 677.048 573.321 648.054 614.271C632.212 636.63 615.003 638.314 588.118 641.938C500.836 653.706 446.809 731.895 393.127 789.016C341.586 843.855 280.531 907.156 194.325 900.519C122.475 894.988 59.3866 843.943 6.29425e-05 809.818" stroke="#E45A2B" stroke-linecap="round"/>
</svg>
