<svg width="1332" height="1199" viewBox="0 0 1332 1199" fill="none" xmlns="http://www.w3.org/2000/svg">
<path d="M1331 1C1331 186.891 1262.65 358.667 1155.34 388.904C1083.23 409.222 1013.72 361.81 960.626 275.743C945.115 250.598 913.205 195.56 914 151.513C914.382 130.387 945.196 198.059 945.941 202.053C958.914 241.316 966.745 291.249 951.487 332.461C932.783 382.982 886.348 386.59 856.221 388.904C846.439 389.656 805.353 377.179 801.231 399.971C794.135 439.202 798.336 482.988 787.909 520.88C770.298 584.874 712.061 563.766 680.406 563.766C617.961 563.766 553.703 561.003 504.745 644.279C477.765 690.174 469.996 762.187 449.912 816.65C438.938 846.389 427.017 848.628 408.394 853.448C347.933 869.1 310.508 973.091 273.322 1049.06C237.619 1122 195.326 1206.19 135.61 1197.36C85.8397 1190 42.1375 1122.11 0.999984 1076.73" stroke="#E45A2B" stroke-linecap="round"/>
</svg>
