<svg width="388" height="32" viewBox="0 0 388 32" fill="none" xmlns="http://www.w3.org/2000/svg">
<path d="M1 25.4867C10.897 30.0062 4.22607 29.2326 7.29037 24.0382C11.7151 16.5378 30.4024 6.84857 45.2232 8.7737C55.975 10.1703 57.1889 26.271 49.6074 29.8321C47.3043 30.9139 41.9042 32.0728 42.1734 29.1636C42.9263 21.0205 55.5368 14.1894 66.5724 10.2779C81.7833 4.88644 116.293 -3.34407 133.383 3.7598C138.85 6.03157 141.09 10.033 141.389 13.7876C141.561 15.9404 135.083 21.3312 137.863 19.9157C163.78 6.72145 212.573 7.05495 244.418 9.21938C258.996 10.2102 269.915 14.35 283.59 16.8516C295.699 19.0668 305.075 19.9565 318.092 20.1942C343.178 20.6525 362.975 16.0221 387 13.4533" stroke="#E45A2B" stroke-linecap="round"/>
</svg>
