<svg width="593" height="345" viewBox="0 0 593 345" fill="none" xmlns="http://www.w3.org/2000/svg">
<path d="M592 0.986328C592 54.2532 561.574 103.476 513.811 112.14C481.716 117.962 450.775 104.376 427.142 79.7138C420.238 72.5085 406.034 56.7374 406.388 44.1158C406.558 38.062 420.274 57.4535 420.605 58.5981C426.38 69.8489 429.865 84.1572 423.074 95.9665C414.748 110.443 394.08 111.477 380.67 112.14C376.316 112.356 358.028 108.78 356.193 115.311C353.034 126.553 354.905 139.1 350.263 149.958C342.425 168.295 316.502 162.247 302.412 162.247C274.617 162.247 246.015 161.455 224.223 185.318C212.214 198.469 208.756 219.104 199.817 234.711C194.932 243.232 189.626 243.874 181.336 245.255C154.424 249.74 137.766 279.539 121.214 301.308C105.322 322.208 86.497 346.333 59.9168 343.803C37.7632 341.695 18.3108 322.241 -2.31266e-05 309.236" stroke="#E45A2B" stroke-linecap="round"/>
</svg>
