<svg width="364" height="108" viewBox="0 0 364 108" fill="none" xmlns="http://www.w3.org/2000/svg">
<path d="M273.104 0.232895C280.942 1.36349 290.113 5.53416 296.545 10.9108C301.796 15.2824 306.042 20.5335 309.358 26.6638C310.413 28.6487 310.74 29.0758 310.991 28.7994C311.142 28.6235 312.273 27.2166 313.504 25.7091C314.735 24.1765 317.649 21.0108 320.011 18.6742C335.814 2.92121 349.13 -2.15393 357.597 4.35331C364.431 9.62944 365.888 21.8148 361.517 37.0653C357.949 49.4768 351.417 61.1597 340.437 74.8525C334.382 82.415 330.312 87.0128 318.83 99.2735C313.051 105.429 311.946 106.509 311.418 106.434C310.011 106.258 309.936 106.359 318.529 97.2887C336.543 78.2694 346.894 65.0289 353.426 52.6676C359.306 41.5375 362.672 29.1511 362.27 19.9305C361.868 10.2827 358.049 4.42868 351.316 3.2227C345.261 2.14236 336.568 6.08689 327.071 14.2523C321.745 18.8501 316.644 24.1514 313.026 28.8496L311.393 30.9852L312.147 33.1208C313.403 36.6634 313.931 39.2763 313.956 41.9646C313.956 44.1504 313.881 44.5524 313.227 45.8589C311.996 48.3211 310.062 49.0748 307.826 47.9442C303.931 45.9594 304.082 39.8039 308.202 32.9701C308.831 31.9148 309.358 30.8847 309.358 30.7089C309.358 29.6034 305.514 23.071 302.851 19.629C300.665 16.7899 295.766 12.0414 293.078 10.1571C287.801 6.43864 281.42 3.54932 275.465 2.1926C272.45 1.48912 266.395 1.28812 263.958 1.79061C259.964 2.64484 257.074 4.80555 255.516 8.17223C254.26 10.8857 253.833 13.2725 253.833 17.5688C253.833 30.9852 260.717 48.3462 272.023 63.3958C278.53 72.0888 280.892 74.7018 295.791 89.7764C307.348 101.459 308.705 103.243 306.996 104.349C306.494 104.7 306.193 104.7 305.288 104.474C303.755 104.072 299.685 101.886 295.238 99.0474C277.274 87.6409 266.998 82.817 257.979 81.5105C252.074 80.6563 247.577 80.807 242.979 81.9627C240.643 82.5657 237.251 84.0481 236.497 84.7767C236.171 85.1284 236.196 85.2289 236.874 85.6812C237.276 85.9827 238.658 87.2389 239.889 88.4951C242.452 91.0829 243.909 93.5451 244.663 96.5601C245.743 100.957 244.11 105.58 240.919 107.087C235.467 109.675 228.432 98.8464 230.317 90.8066C230.744 88.9976 231.849 86.8118 232.729 86.0078C233.005 85.7565 233.231 85.4299 233.231 85.254C233.231 84.8269 226.799 81.812 223.684 80.7568C218.734 79.0986 212.503 77.8423 205.343 77.0384C200.946 76.561 186.701 76.6364 181.098 77.1891C167.857 78.4704 154.818 80.5558 127.708 85.7817C124.467 86.4098 120.623 87.1384 119.166 87.3896C117.709 87.6409 113.99 88.3192 110.875 88.8971C103.991 90.1533 92.5593 91.9623 87.1324 92.6406C77.8866 93.8215 74.5953 94.0225 65.3997 94.0476C56.5559 94.0476 53.541 93.8717 48.0638 93.0175C32.8887 90.6307 19.7486 84.1988 10.7289 74.752C5.20154 68.9483 2.23685 63.3958 0.453003 55.4816C-0.225342 52.5169 -0.17511 52.1149 0.829895 52.2656C1.33237 52.341 1.50824 52.743 2.33734 56.1097C2.86496 58.1699 3.69406 60.8833 4.19656 62.1395C6.00552 66.6368 9.34708 71.3351 13.5931 75.355C21.9344 83.2441 32.1852 88.3192 45.0489 90.9071C52.1843 92.3391 54.3199 92.515 65.1485 92.515C73.7662 92.515 75.751 92.4396 80.3488 91.9372C88.2881 91.0829 97.8103 89.7011 106.101 88.2439C108.79 87.7665 113.186 86.9625 115.875 86.4851C118.538 86.0078 123.01 85.1787 125.799 84.6511C153.059 79.3247 169.314 76.7369 182.982 75.5309C188.384 75.0535 201.549 75.1289 206.273 75.6565C213.458 76.4605 219.915 77.8172 224.789 79.5257C227.603 80.5055 232.553 82.7919 233.734 83.621L234.462 84.1486L236.171 83.1436C242.552 79.2744 252.677 78.4202 262.476 80.8824C266.621 81.9376 271.772 83.9225 276.495 86.2842C281.797 88.9473 284.937 90.7814 296.796 98.1931C301.268 100.982 305.263 103.143 305.514 102.891C305.891 102.489 303.554 99.9016 294.409 90.6558C282.4 78.5207 280.465 76.4605 276.169 71.31C265.642 58.7226 258.682 46.5121 254.838 33.8494C252.2 25.1815 251.396 16.4382 252.728 11.0867C254.185 5.15729 257.903 1.51424 263.682 0.358521C265.792 -0.0685959 270.516 -0.118843 273.104 0.232895ZM308.479 36.0101C306.167 40.7586 305.992 44.1253 307.976 46.1101C310.338 48.4718 312.624 45.7584 312.298 41.035C312.147 39.1758 311.293 35.2564 310.614 33.4977C310.338 32.7691 310.313 32.7439 309.961 33.2464C309.735 33.5228 309.082 34.7539 308.479 36.0101ZM232.653 89.1483C231.899 90.6809 231.849 90.9071 231.849 93.6707C231.849 96.8867 232.151 98.0926 233.658 101.007C235.216 104.022 237.402 105.982 239.186 105.982C240.266 105.982 241.572 104.926 242.402 103.444C243.03 102.288 243.155 101.736 243.231 99.8262C243.356 97.2887 242.879 95.5048 241.497 93.0426C240.593 91.4347 238.13 88.6961 236.246 87.2138L234.889 86.1334L234.161 86.8369C233.784 87.2138 233.105 88.2439 232.653 89.1483Z" fill="#E45A2B"/>
</svg>
