<svg width="1922" height="901" viewBox="0 0 1922 901" fill="none" xmlns="http://www.w3.org/2000/svg">
<path d="M1921 1C1921 140.612 1822.32 269.624 1667.41 292.333C1563.32 307.593 1462.97 271.984 1386.33 207.344C1363.93 188.459 1317.87 147.123 1319.02 114.042C1319.57 98.1751 1364.05 149 1365.13 152C1383.85 181.488 1395.16 218.99 1373.13 249.942C1346.13 287.885 1279.1 290.595 1235.61 292.333C1221.48 292.898 1162.17 283.527 1156.22 300.645C1145.98 330.109 1152.04 362.994 1136.99 391.453C1111.57 439.515 1027.49 423.662 981.796 423.662C891.651 423.662 798.887 421.587 728.211 484.131C689.262 518.6 678.048 572.685 649.054 613.589C633.212 635.924 616.003 637.606 589.118 641.226C501.836 652.981 447.809 731.083 394.127 788.14C342.586 842.918 281.531 906.149 195.325 899.519C123.475 893.994 60.3866 843.006 1.00006 808.919" stroke="#E45A2B" stroke-linecap="round"/>
</svg>
