<svg width="137" height="143" viewBox="0 0 137 143" fill="none" xmlns="http://www.w3.org/2000/svg">
<path d="M27.9197 47.0583C27.3231 48.025 26.581 48.7704 25.6935 49.2945C24.7924 49.8103 23.7769 50.0392 22.6469 49.9814C21.5253 49.9099 20.338 49.4878 19.0852 48.7151C18.2954 48.2279 17.5345 47.6176 16.8026 46.8842C16.0791 46.1372 15.4391 45.3006 14.8825 44.3746C14.3259 43.4485 13.914 42.4707 13.6469 41.4412C13.3662 40.4033 13.2888 39.3404 13.4149 38.2527C13.5409 37.1649 13.9232 36.1036 14.5619 35.0688C15.1164 34.1701 15.8307 33.4545 16.7045 32.922C17.5784 32.3895 18.5735 32.148 19.6899 32.1974C20.8011 32.2248 22.0103 32.6417 23.3177 33.448C23.9713 33.8512 24.6128 34.3503 25.2421 34.9452C25.8662 35.5182 26.4441 36.166 26.9758 36.8887C27.4939 37.603 27.9317 38.3712 28.2892 39.1933C28.6551 40.0018 28.9026 40.85 29.0315 41.7378C29.1688 42.6121 29.1536 43.505 28.9858 44.4167C28.8128 45.3063 28.4575 46.1868 27.9197 47.0583ZM27.7532 46.871C28.2658 46.0404 28.5373 45.174 28.5677 44.2716C28.5929 43.3472 28.43 42.4383 28.0788 41.545C27.7224 40.6296 27.2297 39.7524 26.6007 38.9132C25.9801 38.0604 25.2844 37.2836 24.5137 36.5826C23.7294 35.8732 22.9287 35.2666 22.1116 34.7626C20.8179 33.9646 19.7025 33.5023 18.7655 33.3755C17.8232 33.2267 17.0233 33.3348 16.3655 33.6999C15.7026 34.0429 15.1526 34.5684 14.7157 35.2765C14.2031 36.107 13.9384 36.9777 13.9216 37.8885C13.8912 38.7908 14.0542 39.6997 14.4105 40.6151C14.7533 41.5221 15.235 42.4019 15.8556 43.2547C16.4626 44.0991 17.1541 44.8827 17.93 45.6057C18.6923 46.3203 19.482 46.9296 20.2991 47.4335C21.62 48.2483 22.7558 48.7233 23.7065 48.8585C24.6655 48.98 25.4781 48.8515 26.1443 48.4728C26.7968 48.0857 27.3331 47.5518 27.7532 46.871Z" fill="#706860"/>
<path d="M36.6904 37.0973C35.9681 37.7298 35.1908 38.0808 34.3584 38.1503C33.5259 38.2199 32.6663 38.0156 31.7794 37.5375C30.882 37.0472 29.9799 36.2846 29.0732 35.2496C28.2192 34.2748 27.5052 33.3262 26.9312 32.4039C26.3588 31.4591 25.9376 30.5412 25.6677 29.6504C25.3993 28.737 25.2882 27.8454 25.3345 26.9755C25.3807 26.1056 25.5971 25.2357 25.9835 24.3656C26.37 23.4956 26.9371 22.6375 27.6849 21.7914C28.2476 21.1711 28.7072 20.6517 29.0638 20.2331C29.4218 19.792 29.7009 19.4307 29.901 19.1492C30.1131 18.8571 30.2537 18.617 30.3229 18.4289C30.3935 18.2182 30.4168 18.0383 30.3926 17.8893L30.5732 17.7312C30.7435 18.0713 30.8633 18.4023 30.9327 18.7243C30.9916 19.0343 30.9631 19.3782 30.8474 19.756C30.7317 20.1338 30.5098 20.5726 30.1819 21.0724C29.8434 21.5602 29.3733 22.1526 28.7715 22.8496C27.8763 23.8674 27.1896 24.8196 26.7113 25.7062C26.2225 26.5808 25.9662 27.4538 25.9425 28.3252C25.9083 29.1845 26.1188 30.1168 26.5739 31.1219C27.0304 32.1044 27.7438 33.2343 28.7138 34.5116L28.7499 34.48C28.2256 33.493 27.906 32.5818 27.7912 31.7466C27.6659 30.8994 27.6881 30.1356 27.8579 29.4553C28.0292 28.7524 28.2976 28.124 28.6631 27.57C29.0286 27.016 29.4341 26.544 29.8795 26.154C30.5295 25.5849 31.2391 25.2294 32.0083 25.0876C32.779 24.9232 33.5618 25.0034 34.3568 25.3281C35.1412 25.6408 35.8971 26.2123 36.6246 27.0427C37.1623 27.6565 37.6007 28.3148 37.9397 29.0174C38.2803 29.6975 38.5169 30.4047 38.6498 31.1391C38.7946 31.8629 38.8206 32.5845 38.7276 33.3039C38.6466 34.0128 38.4369 34.6962 38.0986 35.354C37.7617 35.9892 37.2923 36.5703 36.6904 37.0973ZM36.5503 36.901C36.9475 36.5532 37.2529 36.1369 37.4665 35.6522C37.6815 35.145 37.7971 34.5971 37.8134 34.0087C37.8312 33.3977 37.7488 32.7573 37.5664 32.0877C37.3734 31.406 37.084 30.7237 36.6983 30.0406C36.3141 29.3349 35.8215 28.6391 35.2206 27.9531C34.1768 26.7616 33.2025 26.0623 32.2977 25.855C31.3929 25.6477 30.6275 25.8181 30.0015 26.3662C29.6163 26.7035 29.3215 27.1318 29.117 27.6511C28.914 28.1478 28.8149 28.7024 28.8197 29.3149C28.814 29.9154 28.9076 30.5565 29.1006 31.2381C29.2831 31.9078 29.5672 32.5841 29.9529 33.2672C30.3386 33.9503 30.8161 34.6168 31.3854 35.2667C32.4187 36.4461 33.3809 37.156 34.2722 37.3964C35.165 37.6142 35.9243 37.4491 36.5503 36.901Z" fill="#706860"/>
<path d="M46.4162 30.8619C45.2767 31.409 44.166 31.4985 43.084 31.1306C42.0164 30.7558 41.1223 29.8184 40.4017 28.3185C40.1038 27.6984 39.8679 27.0041 39.694 26.2356C39.5132 25.4528 39.4221 24.6534 39.4207 23.8377C39.4193 23.0219 39.525 22.2257 39.7377 21.4491C39.9648 20.6656 40.3267 19.9594 40.8233 19.3305C41.32 18.7016 41.9793 18.1897 42.8015 17.795C43.5371 17.4418 44.2661 17.2781 44.9885 17.304C45.7254 17.3229 46.4156 17.5772 47.0591 18.0669C47.7171 18.5497 48.2989 19.3175 48.8047 20.3703C49.1026 20.9905 49.3385 21.6848 49.5124 22.4532C49.6938 23.2003 49.7887 23.989 49.797 24.8192C49.8128 25.628 49.7143 26.4207 49.5016 27.1973C49.282 27.9595 48.9201 28.6657 48.416 29.316C47.9193 29.9449 47.2527 30.4602 46.4162 30.8619ZM46.3339 30.6351C46.9685 30.3304 47.4476 29.9051 47.7712 29.3593C48.1022 28.7921 48.3199 28.1552 48.4241 27.4484C48.5214 26.7273 48.5261 25.9796 48.4382 25.2053C48.3503 24.4311 48.1977 23.6702 47.9805 22.9225C47.7634 22.1748 47.5058 21.4909 47.2079 20.8708C46.7576 19.9333 46.2894 19.2174 45.8034 18.7231C45.3318 18.2218 44.8499 17.9207 44.3577 17.8198C43.8799 17.712 43.3742 17.7862 42.8405 18.0425C42.2347 18.3333 41.77 18.7517 41.4465 19.2975C41.1229 19.8433 40.9125 20.4768 40.8152 21.198C40.7109 21.9048 40.699 22.6559 40.7795 23.4515C40.8674 24.2257 41.0127 24.9901 41.2155 25.7447C41.4327 26.4924 41.6937 27.1835 41.9985 27.8181C42.6983 29.2747 43.41 30.202 44.1337 30.6C44.8649 30.9766 45.5983 30.9883 46.3339 30.6351Z" fill="#706860"/>
<path d="M78.1198 27.0924C77.4806 27.0603 77.0196 26.8289 76.7368 26.3982C76.4548 25.9515 76.3294 25.4165 76.3606 24.7933C76.3583 24.5209 76.3999 24.1705 76.4854 23.7423C76.5709 23.314 76.6829 22.839 76.8211 22.3173L78.7432 15.1326L78.7192 15.1314L70.3416 26.4618L69.9101 26.4401L68.6278 15.5862C68.4128 16.04 68.2134 16.5026 68.0296 16.974C67.8466 17.4294 67.6539 17.9163 67.4517 18.4348C67.2503 18.9374 67.0397 19.4635 66.8199 20.0132C66.3436 21.2068 65.9168 22.2107 65.5396 23.0248C65.1783 23.8397 64.8255 24.4868 64.4811 24.9662C64.1534 25.4303 63.8162 25.7659 63.4694 25.9727C63.1234 26.1636 62.7427 26.2487 62.3272 26.2278C61.8798 26.2054 61.5322 26.1078 61.2846 25.9352C61.0537 25.7474 60.8883 25.5308 60.7885 25.2855C60.6894 25.0242 60.6459 24.7737 60.6579 24.534C60.6755 24.1825 60.7858 23.8996 60.9888 23.6855C61.2078 23.4722 61.4531 23.3724 61.7247 23.386C61.7015 23.8495 61.7714 24.2134 61.9343 24.4779C62.1141 24.7272 62.4037 24.8619 62.8032 24.882C63.1068 24.8972 63.3977 24.8477 63.6757 24.7335C63.9706 24.6041 64.2718 24.3469 64.5795 23.9618C64.8871 23.5768 65.2192 23.0247 65.5756 22.3057C65.9329 21.5707 66.3417 20.6059 66.802 19.4115C66.9667 19.0033 67.1053 18.6337 67.218 18.303C67.3475 17.957 67.4674 17.6426 67.5777 17.3598C67.704 17.0778 67.8211 16.8193 67.9289 16.5844C68.0376 16.3336 68.1455 16.0987 68.2526 15.8798C68.3605 15.6449 68.4684 15.41 68.5763 15.1751C68.4621 14.5766 68.2656 14.1823 67.9868 13.9921C67.7247 13.7867 67.338 13.6712 66.8267 13.6455L66.3952 13.6239L66.4552 13.3866L69.8829 13.5586L71.2406 24.8248L79.2311 14.0277L80.5974 14.0962L78.4691 22.0395C78.3348 22.4814 78.2153 22.948 78.1106 23.4393C78.0218 23.9315 77.9679 24.3693 77.9486 24.7529C77.9182 25.3601 77.9761 25.8036 78.1223 26.0832C78.2852 26.3477 78.5505 26.4892 78.918 26.5076C79.2057 26.5221 79.4721 26.4794 79.7174 26.3796C79.9795 26.2645 80.2848 26.0876 80.6332 25.8488L80.7446 26.0226C80.5105 26.2191 80.2528 26.4064 79.9715 26.5845C79.707 26.7475 79.4122 26.8769 79.087 26.9727C78.7777 27.0693 78.4553 27.1092 78.1198 27.0924Z" fill="#706860"/>
<path d="M87.6043 31.7844C86.9941 31.5436 86.6344 31.1694 86.5251 30.6619C86.4218 30.1395 86.4758 29.6104 86.6874 29.0746C86.799 28.7919 86.9565 28.4584 87.1598 28.0742C87.378 27.6959 87.6332 27.2892 87.9254 26.8541L89.0765 25.1152L83.3391 22.851L79.7003 28.4071L78.2938 27.8521L84.2653 18.6755C84.3804 18.5145 84.4748 18.3626 84.5485 18.2196C84.628 18.0618 84.6854 17.9382 84.7207 17.849C84.8676 17.4769 84.8351 17.1889 84.6232 16.9848C84.4172 16.7659 84.0761 16.5625 83.5998 16.3746L83.2426 16.2336L83.3754 16.028L86.8803 17.4112L83.4719 22.6454L89.2316 24.9184L92.6847 19.7018L94.1804 20.2921L89.598 27.1271C89.3293 27.5027 89.0533 27.9184 88.7701 28.3743C88.5077 28.8212 88.3089 29.2157 88.1737 29.558C87.9798 30.0491 87.9044 30.458 87.9474 30.7846C87.9905 31.1112 88.1832 31.342 88.5255 31.4771C88.719 31.5535 88.9064 31.6016 89.0877 31.6216C89.2691 31.6416 89.4622 31.6318 89.667 31.5922C89.8867 31.5585 90.1094 31.5174 90.335 31.4688L90.3984 31.7002C90.1403 31.7876 89.8524 31.8632 89.5348 31.927C89.2171 31.9909 88.8993 32.0117 88.5813 31.9894C88.2574 31.9819 87.9317 31.9136 87.6043 31.7844Z" fill="#706860"/>
<path d="M93.5267 36.1166C92.8971 35.6494 92.4285 35.0727 92.1211 34.3863C91.8136 33.6999 91.7203 32.9533 91.841 32.1464C91.9714 31.3266 92.356 30.4863 92.995 29.6256C93.4242 29.0475 93.9431 28.4961 94.5517 27.9715C95.1732 27.4564 95.8447 27.0082 96.5661 26.627C97.3003 26.2553 98.0559 25.9891 98.8328 25.8284C99.6097 25.6677 100.375 25.6574 101.127 25.7976C101.903 25.9345 102.631 26.2555 103.312 26.7608C104.07 27.3233 104.511 27.9498 104.636 28.6403C104.761 29.3308 104.571 30.0165 104.066 30.6974C103.551 31.3911 102.855 31.8314 101.979 32.0182C101.113 32.1922 100.154 32.1282 99.1028 31.8264C98.0516 31.5246 97.012 30.9923 95.984 30.2296L95.1938 29.6433C95.1237 29.7108 95.0298 29.8105 94.912 29.9422C94.8038 30.0612 94.6908 30.1865 94.5731 30.3183C94.4682 30.4596 94.3728 30.5881 94.287 30.7037C93.7243 31.4617 93.3278 32.1836 93.0976 32.8695C92.8674 33.5554 92.8033 34.1653 92.9051 34.6991C93.0294 35.2296 93.31 35.657 93.7469 35.9811C94.4921 36.5341 95.2294 36.7623 95.9586 36.6658C96.6973 36.5565 97.4096 36.2681 98.0953 35.8007C98.1534 35.8836 98.1794 35.9826 98.1736 36.0979C98.1678 36.2131 98.122 36.3285 98.0361 36.4441C97.8454 36.7011 97.5135 36.8931 97.0405 37.0203C96.5803 37.157 96.0443 37.1677 95.4324 37.0524C94.8301 36.9243 94.1949 36.6124 93.5267 36.1166ZM96.05 29.9797C96.6796 30.4468 97.3086 30.794 97.937 31.0212C98.5878 31.2451 99.2028 31.3428 99.7819 31.3142C100.383 31.2824 100.938 31.126 101.445 30.845C101.975 30.5608 102.436 30.1553 102.827 29.6286C103.304 28.9862 103.542 28.4363 103.543 27.9787C103.567 27.5178 103.36 27.1253 102.923 26.8012C102.46 26.458 101.927 26.2911 101.322 26.3006C100.739 26.3067 100.103 26.4523 99.4134 26.7374C98.7459 27.0191 98.0646 27.4001 97.3693 27.8804C96.674 28.3607 96.0093 28.8936 95.3754 29.4791L96.05 29.9797Z" fill="#706860"/>
<path d="M90.0335 109.451C90.9755 108.817 91.9588 108.443 92.9835 108.331C94.017 108.233 95.0367 108.443 96.0424 108.961C97.0349 109.489 97.9427 110.362 98.7657 111.583C99.2846 112.352 99.7263 113.222 100.091 114.192C100.442 115.17 100.681 116.196 100.806 117.27C100.932 118.343 100.904 119.403 100.723 120.451C100.551 121.513 100.183 122.513 99.6203 123.452C99.0571 124.391 98.2714 125.201 97.2631 125.88C96.3874 126.471 95.4417 126.828 94.4261 126.953C93.4104 127.078 92.4041 126.888 91.4073 126.383C90.4062 125.9 89.4762 125.022 88.6174 123.749C88.188 123.112 87.8092 122.393 87.481 121.591C87.1485 120.812 86.889 119.984 86.7024 119.106C86.5247 118.242 86.4425 117.361 86.4555 116.465C86.4553 115.578 86.5794 114.703 86.8278 113.841C87.063 112.988 87.4449 112.18 87.9735 111.419C88.4977 110.68 89.1844 110.024 90.0335 109.451ZM90.108 109.691C89.2987 110.236 88.6942 110.914 88.2946 111.723C87.8907 112.555 87.6646 113.45 87.6164 114.409C87.5638 115.39 87.6512 116.392 87.8785 117.416C88.0925 118.449 88.4062 119.443 88.8195 120.4C89.2418 121.369 89.7213 122.252 90.2581 123.048C91.108 124.308 91.9336 125.189 92.7351 125.691C93.5323 126.215 94.3058 126.446 95.0555 126.384C95.8009 126.345 96.5186 126.093 97.2085 125.628C98.0178 125.082 98.6178 124.398 99.0085 123.575C99.4081 122.766 99.6342 121.87 99.6867 120.889C99.7482 119.922 99.6719 118.922 99.4579 117.889C99.2528 116.869 98.9458 115.87 98.5368 114.892C98.1367 113.927 97.6683 113.046 97.1315 112.25C96.2638 110.963 95.4247 110.063 94.6142 109.548C93.7905 109.042 92.9971 108.824 92.2341 108.894C91.4801 108.978 90.7714 109.244 90.108 109.691Z" fill="#706860"/>
<path d="M77.9369 114.913C78.8555 114.634 79.7084 114.635 80.4955 114.915C81.2826 115.194 81.9816 115.735 82.5925 116.536C83.2081 117.352 83.7156 118.419 84.1151 119.736C84.4914 120.976 84.751 122.134 84.8938 123.211C85.0259 124.308 85.0314 125.318 84.9101 126.241C84.7782 127.184 84.5118 128.042 84.1112 128.816C83.7105 129.589 83.1548 130.293 82.4441 130.926C81.7335 131.56 80.8631 132.108 79.8331 132.571C79.0648 132.904 78.432 133.188 77.9346 133.422C77.4266 133.677 77.0234 133.891 76.7251 134.065C76.4114 134.244 76.1844 134.404 76.0438 134.547C75.8926 134.71 75.7973 134.864 75.7579 135.01L75.5282 135.08C75.5132 134.7 75.5405 134.349 75.61 134.027C75.6841 133.72 75.8518 133.418 76.1129 133.122C76.3741 132.825 76.757 132.517 77.2618 132.197C77.7712 131.892 78.4437 131.546 79.2793 131.159C80.5144 130.6 81.5325 130.015 82.3337 129.405C83.1395 128.809 83.7328 128.119 84.1135 127.335C84.4988 126.566 84.6913 125.63 84.691 124.527C84.6799 123.443 84.4957 122.12 84.1384 120.556L84.0925 120.57C84.1634 121.686 84.079 122.647 83.8393 123.456C83.6044 124.279 83.2693 124.966 82.8342 125.516C82.3885 126.086 81.8849 126.548 81.3236 126.902C80.7622 127.256 80.1983 127.519 79.6318 127.691C78.8049 127.942 78.0119 127.973 77.2527 127.786C76.4828 127.618 75.8026 127.222 75.2122 126.599C74.6264 125.99 74.1732 125.158 73.8527 124.102C73.6158 123.321 73.4877 122.54 73.4684 121.76C73.4385 121 73.5143 120.258 73.696 119.535C73.8623 118.815 74.1361 118.147 74.5173 117.53C74.8833 116.917 75.3559 116.381 75.9354 115.921C76.5041 115.481 77.1713 115.145 77.9369 114.913ZM77.9836 115.15C77.4783 115.303 77.0285 115.556 76.6342 115.91C76.2292 116.284 75.898 116.735 75.6407 117.265C75.3726 117.814 75.1838 118.431 75.074 119.117C74.9689 119.817 74.9513 120.558 75.0211 121.34C75.0803 122.141 75.2423 122.978 75.5071 123.851C75.967 125.367 76.5664 126.405 77.3053 126.967C78.0443 127.529 78.8118 127.689 79.608 127.447C80.098 127.299 80.5431 127.03 80.9435 126.641C81.3331 126.272 81.652 125.808 81.9001 125.248C82.1528 124.703 82.3317 124.08 82.4368 123.38C82.5465 122.694 82.5665 121.961 82.4966 121.179C82.4268 120.398 82.2664 119.594 82.0156 118.767C81.5603 117.267 80.9762 116.223 80.2633 115.637C79.5397 115.071 78.7798 114.908 77.9836 115.15Z" fill="#706860"/>
<path d="M66.5052 116.589C67.7689 116.56 68.8178 116.936 69.6519 117.717C70.4701 118.499 70.8983 119.721 70.9365 121.385C70.9523 122.073 70.881 122.802 70.7227 123.574C70.5647 124.362 70.3182 125.128 69.9832 125.872C69.6482 126.616 69.2238 127.298 68.7099 127.918C68.18 128.538 67.5591 129.032 66.8474 129.401C66.1357 129.769 65.3239 129.964 64.4122 129.985C63.5964 130.003 62.8647 129.852 62.2172 129.531C61.5536 129.21 61.0296 128.694 60.6452 127.983C60.2448 127.272 60.0312 126.332 60.0044 125.165C59.9886 124.477 60.0598 123.747 60.2182 122.975C60.3609 122.22 60.5995 121.462 60.9342 120.702C61.2532 119.958 61.6696 119.277 62.1835 118.657C62.6978 118.053 63.3186 117.558 64.046 117.174C64.7577 116.805 65.5775 116.61 66.5052 116.589ZM66.4867 116.83C65.7829 116.846 65.1711 117.036 64.6513 117.4C64.1159 117.78 63.6551 118.271 63.2688 118.872C62.8828 119.489 62.5703 120.168 62.3313 120.91C62.0923 121.652 61.9176 122.408 61.8072 123.179C61.6969 123.949 61.6496 124.679 61.6654 125.366C61.6893 126.406 61.8207 127.251 62.0597 127.902C62.2827 128.553 62.5977 129.026 63.0046 129.321C63.3954 129.616 63.8868 129.757 64.4786 129.743C65.1505 129.728 65.7463 129.538 66.266 129.174C66.7858 128.81 67.2387 128.319 67.6246 127.702C68.0109 127.101 68.3314 126.422 68.5861 125.664C68.8251 124.922 69.0078 124.166 69.1341 123.395C69.2445 122.624 69.2916 121.887 69.2754 121.183C69.2383 119.567 68.9721 118.429 68.4768 117.768C67.9659 117.124 67.3025 116.811 66.4867 116.83Z" fill="#706860"/>
<path d="M36.0642 106.964C36.6334 107.256 36.9581 107.657 37.0382 108.166C37.111 108.689 37.0048 109.228 36.7194 109.783C36.6092 110.032 36.4269 110.335 36.1724 110.689C35.9179 111.044 35.6201 111.431 35.279 111.849L30.5658 117.603L30.5871 117.614L42.8917 110.743L43.2759 110.941L39.9699 121.357C40.3529 121.033 40.7253 120.693 41.0871 120.34C41.4416 120 41.8179 119.636 42.2159 119.247C42.6066 118.872 43.0153 118.479 43.4422 118.069C44.3683 117.178 45.171 116.439 45.8504 115.853C46.5155 115.259 47.1038 114.815 47.6152 114.52C48.1051 114.232 48.5507 114.066 48.952 114.02C49.3459 113.989 49.7279 114.068 50.0979 114.258C50.4964 114.463 50.7728 114.695 50.9273 114.954C51.0603 115.221 51.1217 115.486 51.1116 115.751C51.0941 116.03 51.0305 116.276 50.9207 116.489C50.7597 116.802 50.5426 117.014 50.2694 117.126C49.982 117.23 49.7173 117.22 49.4754 117.095C49.6876 116.683 49.774 116.322 49.7345 116.014C49.6735 115.713 49.4652 115.471 49.1094 115.288C48.839 115.149 48.5536 115.075 48.2532 115.064C47.9312 115.06 47.5506 115.171 47.1115 115.395C46.6725 115.619 46.1423 115.985 45.5211 116.493C44.8926 117.016 44.1224 117.726 43.2105 118.625C42.8922 118.929 42.6135 119.208 42.3744 119.463C42.1138 119.725 41.875 119.962 41.6579 120.174C41.4266 120.379 41.2133 120.566 41.0182 120.736C40.8157 120.92 40.6206 121.089 40.4328 121.245C40.2376 121.414 40.0425 121.584 39.8473 121.753C39.7047 122.345 39.7212 122.786 39.8968 123.074C40.0509 123.369 40.3557 123.634 40.811 123.868L41.1952 124.065L41.0428 124.257L37.9904 122.688L41.3976 111.864L29.6657 118.409L28.449 117.783L33.6629 111.423C33.9674 111.076 34.2686 110.7 34.5666 110.296C34.8504 109.884 35.0801 109.507 35.2557 109.166C35.5338 108.625 35.6638 108.197 35.6459 107.882C35.6065 107.574 35.4231 107.336 35.0958 107.168C34.8397 107.036 34.5793 106.965 34.3146 106.955C34.0284 106.952 33.6773 106.987 33.2614 107.061L33.2315 106.857C33.5258 106.775 33.8379 106.71 34.1676 106.664C34.4758 106.624 34.7978 106.628 35.1336 106.674C35.4552 106.714 35.7654 106.81 36.0642 106.964Z" fill="#706860"/>
<path d="M29.3552 98.7797C29.8119 99.2506 29.9855 99.7397 29.8759 100.247C29.7547 100.766 29.4874 101.225 29.0738 101.626C28.8556 101.838 28.5746 102.077 28.2311 102.343C27.8763 102.598 27.4762 102.863 27.0306 103.139L25.2651 104.249L29.5597 108.677L35.1651 105.114L36.2179 106.199L26.9948 112.099C26.8236 112.198 26.6749 112.298 26.5489 112.398C26.4114 112.509 26.3082 112.598 26.2393 112.664C25.9521 112.943 25.863 113.219 25.9719 113.492C26.0694 113.776 26.2964 114.102 26.6529 114.47L26.9202 114.745L26.7145 114.878L24.091 112.173L29.3539 108.809L25.0427 104.365L19.7464 107.694L18.6268 106.54L25.6191 102.201C26.0188 101.97 26.4415 101.705 26.8875 101.406C27.3108 101.107 27.6545 100.83 27.9187 100.573C28.2978 100.206 28.5351 99.8645 28.6304 99.5492C28.7258 99.2339 28.6454 98.9441 28.3892 98.68C28.2443 98.5307 28.0934 98.4096 27.9364 98.3167C27.7794 98.2237 27.5994 98.1531 27.3965 98.1047C27.1824 98.0449 26.9626 97.9906 26.737 97.9419L26.7746 97.7049C27.0457 97.7316 27.3392 97.7814 27.655 97.8541C27.9707 97.9269 28.2689 98.0389 28.5495 98.1903C28.8415 98.3306 29.1101 98.527 29.3552 98.7797Z" fill="#706860"/>
<path d="M25.7449 92.3928C26.126 93.0779 26.3152 93.7965 26.3125 94.5486C26.3097 95.3007 26.0871 96.0195 25.6445 96.7049C25.1879 97.3981 24.4911 98.0052 23.5542 98.5261C22.9249 98.876 22.2249 99.1645 21.4541 99.3917C20.6756 99.6048 19.8791 99.7365 19.0647 99.7865C18.2426 99.8225 17.4444 99.7537 16.6704 99.58C15.8963 99.4062 15.1952 99.1004 14.5671 98.6624C13.9172 98.2182 13.3861 97.6256 12.9739 96.8846C12.515 96.0596 12.3709 95.3068 12.5415 94.6261C12.7121 93.9454 13.168 93.3991 13.9091 92.987C14.6643 92.5672 15.4794 92.4526 16.3545 92.6434C17.2156 92.842 18.0629 93.2954 18.8963 94.0037C19.7297 94.7119 20.4575 95.6254 21.0798 96.7439L21.5581 97.6038C21.6498 97.5712 21.7765 97.5191 21.9381 97.4475C22.0857 97.3838 22.2403 97.3161 22.4019 97.2446C22.5557 97.159 22.6955 97.0813 22.8214 97.0113C23.6465 96.5526 24.3052 96.0582 24.7976 95.5281C25.29 94.9981 25.5998 94.4688 25.727 93.9405C25.8324 93.4059 25.7529 92.9009 25.4884 92.4255C25.0373 91.6145 24.4597 91.1027 23.7555 90.8901C23.0374 90.6853 22.2696 90.6545 21.4521 90.7978C21.4334 90.6983 21.4505 90.5973 21.5033 90.4947C21.5561 90.3921 21.6454 90.3059 21.7712 90.2359C22.0509 90.0804 22.4325 90.0422 22.9159 90.1212C23.3915 90.1863 23.8843 90.3975 24.3942 90.7547C24.8902 91.1197 25.3404 91.6657 25.7449 92.3928ZM20.9167 96.9445C20.5356 96.2593 20.1055 95.6838 19.6266 95.2178C19.1259 94.7456 18.6059 94.4031 18.0665 94.1905C17.5053 93.9716 16.9356 93.8856 16.3575 93.9324C15.7576 93.973 15.1709 94.1527 14.5976 94.4715C13.8984 94.8602 13.4541 95.2629 13.2647 95.6794C13.0535 96.0897 13.0802 96.5326 13.3446 97.008C13.6246 97.5113 14.0421 97.8833 14.5971 98.124C15.1303 98.3584 15.7699 98.4879 16.516 98.5125C17.2402 98.5309 18.0181 98.4645 18.8495 98.3135C19.6809 98.1624 20.5061 97.9508 21.325 97.6785L20.9167 96.9445Z" fill="#706860"/>
</svg>
