<svg width="449" height="398" viewBox="0 0 449 398" fill="none" xmlns="http://www.w3.org/2000/svg">
<path d="M150.911 42.9698C150.911 49.7648 148.768 56.8126 147.621 63.0646C145.976 72.0349 144.755 81.2511 143.964 90.6766C143.543 95.6899 142.752 104.444 145.452 107.534C148.912 111.492 150.961 104.704 152.639 99.6074C157.091 86.0872 160.375 67.2129 166.865 57.0362C169.371 53.107 174.093 51.1442 175.063 59.1947C176.097 67.7784 174.964 78.7854 177.562 86.3596C180.709 95.5328 187.726 85.1888 190.961 81.82C195.042 77.5708 201.23 71.1395 205.941 75.4191C207.199 76.5621 207.542 78.8433 208.22 81.0009C209.397 84.7447 211.755 82.9063 213.329 81.3733C221.96 72.9723 229.678 58.7815 239.797 59.0458C245.874 59.2045 252.71 72.7853 250.163 85.8387C248.067 96.5823 243.219 103.075 238.841 109.729C233.227 118.265 227.394 126.16 221.638 134.29C214.641 144.169 206.636 156.278 202.89 172.395C199.061 188.869 203.15 206.191 211.161 213.255C217.216 218.594 225.495 218.039 231.691 214.52C242.299 208.495 252.02 196.66 262.147 188.099C267.777 183.341 273.853 179.154 279.864 176.861C283.511 175.47 289.481 173.536 293.081 176.451C298.784 181.07 296.245 200.944 297.031 209.98C297.639 216.953 300.399 220.913 303.834 221.367C306.949 221.778 309.716 219.151 312.27 215.785C318.864 207.085 324.056 194.397 328.775 181.847C337.843 157.73 344.503 130.208 353.789 106.454C360.057 90.4196 367.75 74.3238 378.125 70.7306C382.969 69.0527 388.985 68.7639 393.565 72.8513C399.858 78.4713 403.62 90.444 406.283 102.733C408.75 114.12 409.735 127.239 413.359 137.527C416.87 147.493 422.573 155.972 428.854 154.235C432.59 153.202 436.275 149.938 440.066 149.77C445.408 149.534 447.101 163.262 447.638 171.502C448.655 187.113 447.703 204.665 442.564 217.274C438.629 226.928 433.141 231.96 426.923 228.289C420.329 224.393 414.063 217.8 407.68 212.734C404.821 210.465 401.626 207.528 398.472 207.152C396.135 206.874 393.694 207.269 392.681 212.213C391.104 219.924 391.159 230.572 391.653 238.708C391.96 243.795 392.783 248.575 393.73 253.296C394.152 255.397 396.152 261.286 395.328 263.789C393.988 267.858 391.189 271.815 389.189 274.209C384.196 280.187 378.447 282.433 372.812 284.442C366.243 286.785 359.843 288.205 353.202 286.192C345.978 284.001 339.066 278.8 331.88 276.219C322.946 273.009 312.861 272.537 305.34 284.889C302.333 289.828 301.759 303.223 301.589 310.305C301.375 319.308 302.973 325.946 306.112 332.037C307.108 333.967 309.11 336.714 309.089 339.964C309.04 347.908 303.234 353.446 300.212 354.253C291.151 356.673 281.03 352.929 272.183 349.304C267.911 347.553 264.768 345.881 261.117 341.564C259.057 339.126 257.3 335.745 255.311 333.079C252.63 329.492 249.797 326.948 246.781 324.744C240.564 320.198 235.202 321.764 228.769 324.185C215.573 329.151 204.149 340.947 191.991 351.946C183.245 359.857 174.432 364.696 167.159 377.734C163.243 384.754 160.632 389.124 155.433 384.098C152.965 381.712 150.771 378.507 148.595 375.204M150.849 42.377C146.818 21.2917 136.802 2.37834 125.256 1.22388C123.125 1.01087 120.639 0.61927 118.574 1.93958C115.513 3.89663 113.779 10.0079 111.822 14.6791C106.634 27.0653 100.626 38.0223 92.1501 37.6891C85.0984 37.4119 78.7545 27.1135 71.5411 31.0688C67.0014 33.5581 62.8916 40.1055 59.3453 46.0987C54.4165 54.428 49.5574 63.1358 44.7987 71.8641C42.8943 75.3574 40.8365 80.9576 38.3296 82.8145C36.5654 84.1213 34.693 84.0951 32.8504 84.2818C32.3859 84.3285 28.0007 85.4488 28.679 86.8225M148.304 374.751C146.198 374.751 143.471 370.318 141.764 368.417C134.46 360.283 127.771 350.935 120.943 341.327C115.257 333.327 107.862 322.946 100.51 324.651C97.9603 325.243 96.6437 328.86 95.1372 332.703C92.3729 339.755 89.5521 346.579 85.9815 352.063C83.8297 355.368 81.3781 358.151 78.6286 358.504C75.1482 358.952 72.8092 354.175 69.7206 351.991C66.5447 349.746 63.3495 351.206 60.6532 355.033C55.6157 362.183 51.3949 372.359 46.8668 380.763C44.2202 385.674 41.3694 390.372 39.0013 395.864C37.2378 399.954 36.3707 397.492 34.2997 394.146C27.6777 383.449 21.0618 372.053 15.4758 359.113C11.4202 349.717 9.37231 338.918 6.72671 327.908C6.08047 325.218 5.24688 321.379 3.93406 319.641C2.97036 318.366 1.4017 324.152 1 325.152" stroke="#93961F" stroke-width="0.5" stroke-linecap="round" stroke-dasharray="5 5"/>
</svg>
