<svg width="566" height="475" viewBox="0 0 566 475" fill="none" xmlns="http://www.w3.org/2000/svg">
<path d="M190.15 51.0043C190.15 59.1002 187.446 67.4972 185.999 74.9459C183.922 85.6335 182.382 96.614 181.384 107.844C180.852 113.817 179.855 124.246 183.262 127.928C187.627 132.644 190.212 124.557 192.33 118.484C197.947 102.376 202.091 79.8885 210.28 67.7635C213.441 63.0822 219.399 60.7436 220.623 70.3352C221.928 80.5622 220.499 93.6763 223.777 102.7C227.746 113.63 236.601 101.305 240.683 97.2918C245.832 92.2291 253.64 84.5667 259.583 89.6656C261.17 91.0274 261.603 93.7453 262.459 96.3159C263.944 100.776 266.919 98.5861 268.905 96.7596C279.795 86.7504 289.533 69.8429 302.3 70.1578C309.969 70.3469 318.594 86.5275 315.381 102.08C312.736 114.88 306.619 122.616 301.095 130.544C294.012 140.713 286.651 150.12 279.389 159.806C270.56 171.577 260.46 186.003 255.734 205.207C250.903 224.833 256.062 245.472 266.169 253.888C273.809 260.249 284.255 259.588 292.073 255.395C305.458 248.217 317.723 234.116 330.501 223.916C337.605 218.247 345.27 213.26 352.856 210.527C357.457 208.87 364.989 206.565 369.532 210.039C376.727 215.542 373.524 239.22 374.516 249.986C375.283 258.294 378.765 263.013 383.099 263.553C387.029 264.043 390.521 260.913 393.743 256.903C402.064 246.537 408.614 231.42 414.569 216.468C426.01 187.734 434.414 154.943 446.13 126.642C454.039 107.538 463.745 88.3606 476.835 84.0795C482.948 82.0804 490.538 81.7363 496.316 86.6063C504.257 93.3021 509.003 107.567 512.364 122.209C515.477 135.775 516.72 151.405 521.292 163.663C525.722 175.537 532.918 185.639 540.843 183.57C545.556 182.339 550.206 178.45 554.989 178.25C561.73 177.968 563.866 194.325 564.543 204.142C565.826 222.742 564.626 243.654 558.142 258.676C553.177 270.179 546.252 276.174 538.407 271.8C530.086 267.159 522.18 259.303 514.126 253.267C510.519 250.564 506.487 247.064 502.509 246.616C499.56 246.285 496.48 246.756 495.201 252.646C493.212 261.834 493.282 274.52 493.905 284.214C494.292 290.275 495.33 295.97 496.525 301.594C497.057 304.098 499.581 311.114 498.541 314.097C496.851 318.945 493.319 323.659 490.795 326.511C484.496 333.634 477.242 336.31 470.132 338.703C461.844 341.495 453.769 343.187 445.389 340.787C436.275 338.177 427.553 331.98 418.486 328.905C407.213 325.081 394.489 324.519 385 339.236C381.206 345.12 380.481 361.079 380.267 369.517C379.997 380.244 382.013 388.152 385.973 395.41C387.23 397.709 389.756 400.981 389.73 404.853C389.668 414.319 382.342 420.917 378.529 421.879C367.096 424.762 354.326 420.301 343.164 415.982C337.773 413.896 333.808 411.904 329.201 406.76C326.602 403.856 324.386 399.827 321.875 396.651C318.493 392.377 314.918 389.346 311.113 386.72C303.268 381.303 296.504 383.17 288.386 386.055C271.737 391.97 257.322 406.025 241.982 419.129C230.947 428.555 219.827 434.32 210.651 449.855C205.71 458.219 202.415 463.424 195.855 457.436C192.741 454.593 189.973 450.775 187.228 446.84M190.071 50.298C184.985 25.1762 172.348 2.64221 157.779 1.26673C155.091 1.01295 151.954 0.546384 149.349 2.11945C145.487 4.45115 143.298 11.7324 140.83 17.2978C134.283 32.0551 126.703 45.1097 116.008 44.7127C107.111 44.3824 99.1063 32.1125 90.0049 36.8251C84.2769 39.7909 79.0914 47.5917 74.6169 54.7322C68.398 64.6561 62.267 75.0308 56.2628 85.4301C53.8599 89.592 51.2634 96.2643 48.1004 98.4767C45.8745 100.034 43.512 100.003 41.1871 100.225C40.601 100.281 35.068 101.615 35.9238 103.252M186.86 446.3C184.203 446.3 180.762 441.018 178.608 438.753C169.392 429.063 160.953 417.925 152.337 406.478C145.163 396.946 135.833 384.578 126.557 386.61C123.339 387.315 121.678 391.624 119.777 396.203C116.289 404.605 112.73 412.735 108.225 419.269C105.51 423.207 102.417 426.522 98.9475 426.943C94.5562 427.476 91.6048 421.785 87.7078 419.184C83.7007 416.508 79.6692 418.248 76.2671 422.808C69.911 431.326 64.5855 443.45 58.8722 453.463C55.5329 459.315 51.9359 464.912 48.948 471.455C46.7229 476.328 45.6288 473.394 43.0157 469.409C34.6605 456.664 26.3129 443.086 19.2648 427.668C14.1476 416.474 11.5637 403.608 8.22564 390.49C7.41026 387.285 6.35848 382.711 4.70203 380.641C3.48609 379.121 1.50684 386.014 1 387.207" stroke="#93961F" stroke-linecap="round" stroke-dasharray="7 7"/>
</svg>
