<svg xmlns="http://www.w3.org/2000/svg" fill="none" viewBox="0 0 1096 594"><path stroke="#93961F" stroke-dasharray="15 15" stroke-linecap="round" d="M367.897 63.69c0 10.15-5.245 20.678-8.052 30.016-4.028 13.399-7.015 27.165-8.952 41.244-1.03 7.489-2.965 20.564 3.644 25.18 8.466 5.912 13.481-4.226 17.589-11.84 10.896-20.195 18.933-48.388 34.817-63.589 6.132-5.869 17.689-8.8 20.063 3.225 2.531 12.821-.241 29.262 6.118 40.576 7.7 13.702 24.874-1.749 32.792-6.781 9.988-6.347 25.133-15.953 36.663-9.561 3.078 1.707 3.917 5.115 5.577 8.338 2.88 5.592 8.651 2.846 12.504.556 21.124-12.549 40.013-33.746 64.777-33.35 14.875.236 31.606 20.522 25.372 40.02-5.129 16.048-16.996 25.746-27.711 35.685-13.738 12.749-28.016 24.543-42.102 36.686-17.126 14.758-36.716 32.844-45.885 56.919-9.371 24.606.636 50.481 20.242 61.031 14.819 7.975 35.082 7.147 50.247 1.89 25.962-8.999 49.752-26.678 74.538-39.465 13.78-7.107 28.649-13.36 43.363-16.786 8.925-2.078 23.535-4.967 32.347-.612 13.956 6.9 7.743 36.584 9.667 50.082 1.489 10.415 8.241 16.331 16.648 17.009 7.624.614 14.397-3.31 20.647-8.338 16.14-12.996 28.846-31.947 40.396-50.693 22.193-36.024 38.493-77.134 61.22-112.614 15.341-23.952 34.167-47.994 59.56-53.361 11.856-2.507 26.58-2.938 37.787 3.168 15.404 8.394 24.609 26.278 31.129 44.634 6.037 17.008 8.448 36.604 17.318 51.972 8.59 14.886 22.55 27.551 37.92 24.957 9.14-1.543 18.16-6.419 27.44-6.67 13.08-.353 17.22 20.153 18.53 32.461 2.49 23.319.16 49.536-12.41 68.369-9.63 14.422-23.07 21.937-38.28 16.454-16.14-5.819-31.48-15.668-47.101-23.235-6.996-3.388-14.817-7.776-22.534-8.338-5.721-.415-11.695.175-14.174 7.56-3.859 11.519-3.724 27.423-2.516 39.576.752 7.598 2.765 14.739 5.083 21.79 1.032 3.139 5.928 11.935 3.91 15.674-3.277 6.078-10.129 11.989-15.024 15.564-12.219 8.93-26.29 12.285-40.08 15.286-16.078 3.499-31.741 5.621-47.995 2.612-17.68-3.272-34.598-11.041-52.185-14.896-21.865-4.795-46.547-5.499-64.953 12.951-7.36 7.377-8.765 27.385-9.18 37.964-.524 13.448 3.387 23.362 11.067 32.461 2.438 2.883 7.339 6.986 7.287 11.84-.119 11.867-14.33 20.139-21.725 21.344-22.177 3.615-46.947-1.977-68.6-7.393-10.456-2.614-18.147-5.112-27.083-11.561-5.041-3.641-9.34-8.692-14.21-12.673-6.561-5.358-13.495-9.159-20.875-12.451-15.217-6.791-28.339-4.45-44.084-.834-32.296 7.417-60.256 25.037-90.012 41.466-21.404 11.817-42.973 19.045-60.773 38.52-9.584 10.486-15.975 17.012-28.7 9.505-6.041-3.564-11.41-8.351-16.734-13.284m5.515-497.145c-9.866-31.495-34.378-59.746-62.638-61.47-5.214-.319-11.298-.904-16.352 1.068-7.491 2.924-11.735 12.052-16.524 19.03-12.699 18.5-27.402 34.867-48.147 34.37-17.258-.414-32.785-15.797-50.439-9.89-11.11 3.72-21.169 13.499-29.848 22.451-12.063 12.442-23.955 25.448-35.602 38.486-4.661 5.218-9.697 13.583-15.833 16.356-4.317 1.953-8.9 1.913-13.41 2.192-1.136.07-11.869 1.743-10.209 3.795m292.773 430.08c-5.153 0-11.828-6.622-16.006-9.462-17.876-12.148-34.246-26.113-50.958-40.463-13.916-11.95-32.014-27.456-50.007-24.909-6.241.884-9.463 6.286-13.15 12.027-6.766 10.533-13.669 20.726-22.408 28.918-5.266 4.936-11.266 9.093-17.996 9.621-8.518.668-14.242-6.466-21.801-9.728-7.773-3.354-15.593-1.173-22.192 4.543-12.329 10.68-22.659 25.88-33.741 38.432-6.478 7.337-13.455 14.354-19.25 22.557-4.317 6.11-6.439 2.432-11.507-2.565-16.207-15.979-32.4-33.001-46.07-52.33-9.926-14.034-14.938-30.165-21.413-46.611-1.582-4.018-3.622-9.752-6.835-12.347-2.359-1.906-6.198 6.736-7.181 8.231"/></svg>