<svg width="2111" height="926" viewBox="0 0 2111 926" fill="none" xmlns="http://www.w3.org/2000/svg">
<path d="M708.3 98.7886C708.3 114.621 698.189 131.042 692.777 145.609C685.012 166.51 679.254 187.983 675.52 209.944C673.534 221.625 669.804 242.021 682.544 249.221C698.866 258.444 708.533 242.629 716.452 230.753C737.457 199.251 752.952 155.274 783.572 131.563C795.394 122.408 817.673 117.835 822.249 136.592C827.128 156.592 821.785 182.238 834.043 199.886C848.887 221.259 881.996 197.158 897.26 189.308C916.514 179.408 945.711 164.423 967.937 174.395C973.871 177.058 975.49 182.373 978.69 187.4C984.242 196.123 995.367 191.84 1002.79 188.268C1043.52 168.694 1079.93 135.629 1127.67 136.245C1156.35 136.615 1188.6 168.258 1176.58 198.672C1166.69 223.704 1143.82 238.833 1123.16 254.336C1096.68 274.223 1069.15 292.62 1042 311.561C1008.98 334.581 971.216 362.793 953.542 400.347C935.476 438.729 954.767 479.091 992.564 495.548C1021.13 507.988 1060.19 506.696 1089.43 498.496C1139.48 484.458 1185.34 456.882 1233.12 436.936C1259.69 425.849 1288.35 416.095 1316.72 410.751C1333.92 407.51 1362.09 403.004 1379.07 409.797C1405.98 420.56 1394 466.863 1397.71 487.918C1400.58 504.164 1413.6 513.393 1429.81 514.45C1444.5 515.408 1457.56 509.287 1469.61 501.444C1500.72 481.172 1525.22 451.611 1547.48 422.369C1590.27 366.177 1621.69 302.052 1665.5 246.706C1695.08 209.345 1731.37 171.843 1780.32 163.471C1803.18 159.561 1831.56 158.888 1853.17 168.412C1882.86 181.506 1900.61 209.402 1913.18 238.036C1924.81 264.566 1929.46 295.133 1946.56 319.105C1963.13 342.325 1990.03 362.08 2019.67 358.035C2037.29 355.628 2054.68 348.021 2072.57 347.63C2097.77 347.08 2105.76 379.066 2108.29 398.266C2113.09 434.639 2108.6 475.534 2084.35 504.912C2065.79 527.407 2039.89 539.131 2010.56 530.577C1979.44 521.501 1949.88 506.137 1919.76 494.335C1906.28 489.048 1891.2 482.204 1876.32 481.328C1865.3 480.68 1853.78 481.601 1849 493.12C1841.56 511.088 1841.82 535.896 1844.15 554.854C1845.6 566.706 1849.48 577.844 1853.95 588.842C1855.94 593.74 1865.37 607.461 1861.49 613.293C1855.17 622.773 1841.96 631.993 1832.52 637.57C1808.97 651.499 1781.84 656.732 1755.26 661.414C1724.26 666.873 1694.07 670.182 1662.73 665.489C1628.65 660.385 1596.03 648.266 1562.13 642.252C1519.98 634.773 1472.4 633.674 1436.91 662.454C1422.73 673.962 1420.02 705.172 1419.22 721.673C1418.21 742.65 1425.75 758.115 1440.55 772.308C1445.25 776.806 1454.7 783.205 1454.6 790.777C1454.37 809.287 1426.98 822.191 1412.72 824.071C1369.97 829.709 1322.22 820.986 1280.47 812.539C1260.32 808.461 1245.49 804.564 1228.26 794.505C1218.54 788.826 1210.26 780.946 1200.87 774.737C1188.22 766.379 1174.85 760.451 1160.63 755.314C1131.29 744.722 1106 748.373 1075.64 754.014C1013.38 765.583 959.482 793.068 902.117 818.695C860.855 837.129 819.275 848.403 784.96 878.782C766.483 895.138 754.164 905.318 729.633 893.608C717.987 888.048 707.637 880.582 697.373 872.886M708.005 97.4073C688.985 48.2791 641.731 4.2115 587.253 1.52162C577.2 1.02532 565.472 0.112908 555.729 3.1892C541.288 7.74907 533.105 21.9883 523.873 32.872C499.394 61.7314 471.048 87.2611 431.057 86.4847C397.787 85.8388 367.855 61.8437 333.821 71.0596C312.402 76.8596 293.012 92.1148 276.28 106.079C253.025 125.486 230.1 145.775 207.648 166.112C198.662 174.251 188.953 187.299 177.125 191.626C168.802 194.671 159.968 194.61 151.274 195.044C149.083 195.153 128.392 197.763 131.593 200.964M695.996 871.83C686.063 871.83 673.196 861.501 665.141 857.071C630.679 838.121 599.121 816.339 566.904 793.954C540.076 775.313 505.189 751.126 470.502 755.1C458.47 756.478 452.258 764.905 445.151 773.86C432.108 790.29 418.8 806.189 401.953 818.968C391.801 826.668 380.234 833.152 367.261 833.976C350.84 835.018 339.804 823.889 325.232 818.801C310.248 813.569 295.173 816.972 282.451 825.888C258.683 842.548 238.769 866.257 217.405 885.837C204.918 897.281 191.468 908.227 180.295 921.023C171.974 930.553 167.883 924.815 158.112 917.021C126.869 892.097 95.6542 865.544 69.2988 835.393C50.1637 813.502 40.5016 788.341 28.0193 762.687C24.9703 756.42 21.0373 747.475 14.8432 743.427C10.2964 740.454 2.89526 753.935 1 756.267" stroke="#93961F" stroke-linecap="round" stroke-dasharray="15 15"/>
</svg>
