<svg width="770" height="363" viewBox="0 0 770 363" fill="none" xmlns="http://www.w3.org/2000/svg">
<path d="M1 1C1 57.0622 40.471 108.868 102.434 117.987C144.071 124.115 184.211 109.816 214.87 83.859C223.827 76.2756 242.253 59.6768 241.794 46.3929C241.573 40.0214 223.78 60.4305 223.35 61.6352C215.859 73.4763 211.337 88.5355 220.147 100.965C230.948 116.201 257.762 117.289 275.158 117.987C280.807 118.214 304.531 114.451 306.912 121.325C311.009 133.156 308.583 146.361 314.604 157.789C324.774 177.089 358.402 170.723 376.682 170.723C412.74 170.723 449.845 169.89 478.116 195.005C493.695 208.846 498.181 230.564 509.778 246.99C516.115 255.958 522.999 256.634 533.753 258.088C568.666 262.808 590.276 294.17 611.749 317.082C632.366 339.078 656.788 364.469 691.27 361.807C720.01 359.588 745.245 339.114 769 325.426" stroke="#93961F" stroke-linecap="round"/>
</svg>
