<svg width="310" height="310" viewBox="0 0 310 310" fill="none" xmlns="http://www.w3.org/2000/svg">
<path opacity="0.4" d="M147.355 7.01611C148.343 -2.33872 160.916 -2.3387 161.939 7.01614L173.296 110.848C173.917 116.524 179.721 119.662 184.289 116.79L271.221 62.1404C278.845 57.347 286.396 68.5177 279.842 74.8954L208.87 143.958C204.645 148.069 206.18 155.595 211.617 157.427L304.818 188.822C313.302 191.68 310.697 205.317 301.865 204.278L202.638 192.606C197.152 191.96 193.004 197.838 195.029 203.387L229.967 299.111C233.181 307.916 222.007 314.288 217.074 306.464L161.113 217.718C158.191 213.085 151.871 213.085 148.967 217.718L93.3372 306.464C88.4329 314.288 77.2357 307.916 80.4165 299.111L114.998 203.387C117.002 197.838 112.832 191.96 107.349 192.606L8.16466 204.278C-0.663547 205.317 -3.31935 191.68 5.15456 188.822L98.238 157.427C103.668 155.595 105.175 148.069 100.935 143.958L29.7057 74.8954C23.1279 68.5177 30.6364 57.347 38.2792 62.1404L125.415 116.79C129.993 119.662 135.785 116.524 136.385 110.848L147.355 7.01611Z" fill="#706860"/>
</svg>
