<svg width="368" height="368" viewBox="0 0 368 368" fill="none" xmlns="http://www.w3.org/2000/svg">
<path d="M174.924 8.3288C176.098 -2.77629 191.023 -2.77626 192.238 8.32884L205.72 131.588C206.457 138.326 213.346 142.05 218.768 138.641L321.965 73.7667C331.016 68.0765 339.979 81.3372 332.199 88.9081L247.949 170.892C242.934 175.772 244.756 184.707 251.21 186.881L361.848 224.15C371.92 227.543 368.828 243.731 358.343 242.497L240.551 228.641C234.038 227.875 229.114 234.852 231.518 241.44L272.993 355.074C276.808 365.526 263.544 373.091 257.688 363.803L191.257 258.452C187.788 252.952 180.286 252.952 176.838 258.452L110.8 363.803C104.978 373.091 91.6863 365.526 95.4622 355.074L136.513 241.44C138.893 234.852 133.943 227.875 127.433 228.641L9.69224 242.497C-0.787694 243.731 -3.94039 227.543 6.11897 224.15L116.618 186.881C123.064 184.707 124.853 175.772 119.819 170.892L35.2636 88.9081C27.4551 81.3372 36.3684 68.0764 45.4411 73.7666L148.88 138.641C154.315 142.05 161.19 138.326 161.902 131.588L174.924 8.3288Z" fill="#E45A2B"/>
</svg>
